<?xml version="1.0" encoding="UTF-8"?> <!-- Generator: Adobe Illustrator 23.0.5, SVG Export Plug-In . SVG Version: 6.00 Build 0) --> <svg xmlns="http://www.w3.org/2000/svg" xmlns:xlink="http://www.w3.org/1999/xlink" version="1.1" id="Layer_1" x="0px" y="0px" viewBox="0 0 180.2 85" style="enable-background:new 0 0 180.2 85;" xml:space="preserve"> <style type="text/css"> .st0{fill:none;} .st1{fill-rule:evenodd;clip-rule:evenodd;fill:#FFFFFF;} .st2{fill-rule:evenodd;clip-rule:evenodd;fill:#F3BD45;} .st3{fill-rule:evenodd;clip-rule:evenodd;fill:#00843F;} .st4{fill-rule:evenodd;clip-rule:evenodd;fill:none;} .st5{fill:#FFFFFF;} .st6{fill:#00803C;} </style> <g> <g> <path class="st6" d="M98.48,37.34c0,0.54-0.18,0.96-0.54,1.25c-0.36,0.29-0.87,0.44-1.52,0.44h-0.54v1.95h-0.85v-5.22h1.5 c0.65,0,1.14,0.13,1.47,0.4C98.32,36.43,98.48,36.82,98.48,37.34z M95.88,38.31h0.45c0.44,0,0.76-0.08,0.96-0.23 c0.2-0.15,0.31-0.39,0.31-0.71c0-0.3-0.09-0.52-0.27-0.67s-0.47-0.22-0.86-0.22h-0.59V38.31z"></path> <path class="st6" d="M102.32,40.98h-2.95v-5.22h2.95v0.72h-2.1v1.42h1.97v0.71h-1.97v1.64h2.1V40.98z"></path> <path class="st6" d="M106.67,40.98l-0.52-1.45h-2l-0.51,1.45h-0.9l1.95-5.24h0.93l1.95,5.24H106.67z M105.92,38.8l-0.49-1.42 c-0.04-0.09-0.09-0.24-0.15-0.45c-0.06-0.2-0.11-0.35-0.13-0.45c-0.06,0.29-0.16,0.61-0.28,0.96l-0.47,1.36H105.92z"></path> <path class="st6" d="M110.47,36.42c-0.49,0-0.88,0.17-1.16,0.52c-0.28,0.35-0.42,0.83-0.42,1.44c0,0.64,0.13,1.12,0.4,1.45 s0.66,0.49,1.17,0.49c0.22,0,0.44-0.02,0.64-0.07c0.21-0.04,0.42-0.1,0.65-0.17v0.73c-0.41,0.16-0.87,0.23-1.39,0.23 c-0.76,0-1.35-0.23-1.76-0.69c-0.41-0.46-0.61-1.12-0.61-1.99c0-0.54,0.1-1.02,0.3-1.42s0.49-0.72,0.86-0.94 c0.38-0.22,0.82-0.32,1.32-0.32c0.53,0,1.03,0.11,1.48,0.33l-0.31,0.71c-0.18-0.08-0.36-0.16-0.56-0.22 C110.89,36.45,110.69,36.42,110.47,36.42z"></path> <path class="st6" d="M115.82,40.98h-2.95v-5.22h2.95v0.72h-2.1v1.42h1.97v0.71h-1.97v1.64h2.1V40.98z"></path> <path class="st6" d="M117.71,40.22c-0.11,0.44-0.32,1.01-0.63,1.71h-0.62c0.16-0.64,0.29-1.24,0.37-1.79h0.82L117.71,40.22z"></path> <path class="st6" d="M124.21,37.34c0,0.54-0.18,0.96-0.54,1.25c-0.36,0.29-0.86,0.44-1.52,0.44h-0.54v1.95h-0.85v-5.22h1.5 c0.65,0,1.14,0.13,1.47,0.4C124.05,36.43,124.21,36.82,124.21,37.34z M121.61,38.31h0.45c0.44,0,0.76-0.08,0.96-0.23 c0.2-0.15,0.31-0.39,0.31-0.71c0-0.3-0.09-0.52-0.27-0.67c-0.18-0.15-0.47-0.22-0.86-0.22h-0.59V38.31z"></path> <path class="st6" d="M126.09,38.9v2.08h-0.85v-5.22h1.47c0.67,0,1.17,0.13,1.5,0.38s0.49,0.63,0.49,1.14 c0,0.65-0.34,1.11-1.01,1.39l1.47,2.31h-0.97l-1.25-2.08H126.09z M126.09,38.19h0.59c0.4,0,0.69-0.07,0.86-0.22 c0.18-0.15,0.27-0.37,0.27-0.66c0-0.29-0.1-0.51-0.29-0.64c-0.19-0.13-0.48-0.19-0.87-0.19h-0.56V38.19z"></path> <path class="st6" d="M134.53,38.37c0,0.85-0.21,1.51-0.64,1.98c-0.42,0.47-1.03,0.71-1.8,0.71c-0.79,0-1.39-0.23-1.82-0.7 c-0.42-0.47-0.63-1.13-0.63-1.99c0-0.86,0.21-1.52,0.64-1.98c0.42-0.46,1.03-0.69,1.82-0.69c0.78,0,1.38,0.23,1.8,0.7 C134.32,36.85,134.53,37.51,134.53,38.37z M130.54,38.37c0,0.64,0.13,1.13,0.39,1.46c0.26,0.33,0.64,0.5,1.15,0.5 c0.51,0,0.89-0.16,1.15-0.49c0.26-0.33,0.39-0.82,0.39-1.47c0-0.64-0.13-1.12-0.38-1.46c-0.26-0.33-0.64-0.5-1.14-0.5 c-0.51,0-0.9,0.17-1.16,0.5C130.68,37.24,130.54,37.73,130.54,38.37z"></path> <path class="st6" d="M138.64,39.57c0,0.47-0.17,0.83-0.5,1.09c-0.34,0.26-0.8,0.4-1.39,0.4c-0.59,0-1.07-0.09-1.45-0.28v-0.81 c0.24,0.11,0.49,0.2,0.76,0.26c0.27,0.07,0.52,0.1,0.75,0.1c0.34,0,0.59-0.06,0.75-0.19c0.16-0.13,0.24-0.3,0.24-0.52 c0-0.19-0.07-0.36-0.22-0.5c-0.15-0.14-0.45-0.3-0.91-0.48c-0.48-0.19-0.81-0.41-1.01-0.66c-0.2-0.25-0.29-0.54-0.29-0.89 c0-0.44,0.15-0.78,0.46-1.03c0.31-0.25,0.72-0.37,1.25-0.37c0.5,0,1,0.11,1.49,0.33l-0.27,0.7c-0.46-0.19-0.88-0.29-1.24-0.29 c-0.28,0-0.49,0.06-0.63,0.18s-0.21,0.28-0.21,0.48c0,0.14,0.03,0.25,0.09,0.35c0.06,0.1,0.15,0.19,0.28,0.27 c0.13,0.09,0.37,0.2,0.71,0.34c0.38,0.16,0.66,0.31,0.84,0.45c0.18,0.14,0.31,0.29,0.39,0.47 C138.6,39.13,138.64,39.33,138.64,39.57z"></path> <path class="st6" d="M143.09,37.34c0,0.54-0.18,0.96-0.54,1.25c-0.36,0.29-0.87,0.44-1.52,0.44h-0.54v1.95h-0.85v-5.22h1.5 c0.65,0,1.14,0.13,1.47,0.4C142.93,36.43,143.09,36.82,143.09,37.34z M140.49,38.31h0.45c0.44,0,0.76-0.08,0.96-0.23 s0.31-0.39,0.31-0.71c0-0.3-0.09-0.52-0.27-0.67c-0.18-0.15-0.47-0.22-0.86-0.22h-0.59V38.31z"></path> <path class="st6" d="M147.07,40.98h-2.95v-5.22h2.95v0.72h-2.1v1.42h1.97v0.71h-1.97v1.64h2.1V40.98z"></path> <path class="st6" d="M149.04,38.9v2.08h-0.85v-5.22h1.47c0.67,0,1.17,0.13,1.5,0.38c0.32,0.25,0.49,0.63,0.49,1.14 c0,0.65-0.34,1.11-1.01,1.39l1.47,2.31h-0.97l-1.25-2.08H149.04z M149.04,38.19h0.59c0.4,0,0.69-0.07,0.86-0.22 c0.18-0.15,0.27-0.37,0.27-0.66c0-0.29-0.1-0.51-0.29-0.64c-0.19-0.13-0.48-0.19-0.87-0.19h-0.56V38.19z"></path> <path class="st6" d="M152.85,40.98v-5.22h0.85v5.22H152.85z"></path> <path class="st6" d="M156.86,40.98h-0.85V36.5h-1.53v-0.73h3.92v0.73h-1.53V40.98z"></path> <path class="st6" d="M160.66,38.15l1.24-2.38h0.93l-1.74,3.2v2.02h-0.86v-1.99l-1.73-3.22h0.93L160.66,38.15z"></path> <path class="st6" d="M168.62,40.98l-0.52-1.45h-2l-0.51,1.45h-0.9l1.95-5.24h0.93l1.95,5.24H168.62z M167.87,38.8l-0.49-1.42 c-0.04-0.09-0.09-0.24-0.15-0.45c-0.06-0.2-0.11-0.35-0.13-0.45c-0.06,0.29-0.16,0.61-0.28,0.96l-0.47,1.36H167.87z"></path> <path class="st6" d="M174.55,40.98h-1.05l-2.57-4.16h-0.03l0.02,0.23c0.03,0.44,0.05,0.85,0.05,1.21v2.71h-0.77v-5.22h1.04 l2.56,4.14h0.02c0-0.06-0.01-0.25-0.03-0.6c-0.01-0.34-0.02-0.61-0.02-0.8v-2.73h0.78V40.98z"></path> <path class="st6" d="M180.15,38.32c0,0.86-0.24,1.52-0.72,1.98c-0.48,0.46-1.17,0.68-2.07,0.68h-1.46v-5.22h1.61 c0.83,0,1.48,0.22,1.94,0.67S180.15,37.51,180.15,38.32z M179.25,38.35c0-1.25-0.58-1.87-1.75-1.87h-0.74v3.79h0.61 C178.63,40.27,179.25,39.63,179.25,38.35z"></path> </g> <path class="st6" d="M95.88,47.67v2.08h-0.85v-5.22h1.47c0.67,0,1.17,0.13,1.49,0.38s0.49,0.63,0.49,1.14 c0,0.65-0.34,1.11-1.01,1.39l1.47,2.31h-0.97l-1.25-2.08H95.88z M95.88,46.96h0.59c0.4,0,0.68-0.07,0.86-0.22s0.27-0.37,0.27-0.66 c0-0.29-0.1-0.51-0.29-0.64c-0.19-0.13-0.48-0.19-0.87-0.19h-0.56V46.96z"></path> <path class="st6" d="M102.61,49.76h-2.95v-5.22h2.95v0.72h-2.1v1.42h1.97v0.71h-1.97v1.64h2.1V49.76z"></path> <path class="st6" d="M105.84,46.92h1.92v2.62c-0.31,0.1-0.62,0.17-0.9,0.22c-0.29,0.04-0.6,0.06-0.94,0.06 c-0.79,0-1.4-0.23-1.83-0.7c-0.43-0.47-0.64-1.13-0.64-1.98c0-0.84,0.24-1.5,0.72-1.97c0.48-0.48,1.15-0.71,1.99-0.71 c0.54,0,1.06,0.1,1.55,0.31l-0.3,0.71c-0.42-0.19-0.85-0.29-1.27-0.29c-0.56,0-1,0.17-1.32,0.53c-0.32,0.35-0.49,0.83-0.49,1.43 c0,0.64,0.15,1.12,0.44,1.46c0.29,0.33,0.71,0.5,1.26,0.5c0.28,0,0.57-0.03,0.88-0.1v-1.35h-1.08V46.92z"></path> <path class="st6" d="M108.97,49.76v-5.22h0.85v5.22H108.97z"></path> <path class="st6" d="M115.79,47.14c0,0.85-0.21,1.51-0.64,1.98c-0.42,0.47-1.03,0.71-1.8,0.71c-0.79,0-1.39-0.23-1.81-0.7 c-0.42-0.47-0.63-1.13-0.63-1.99c0-0.86,0.21-1.52,0.64-1.98c0.42-0.46,1.03-0.69,1.82-0.69c0.78,0,1.37,0.23,1.8,0.7 C115.58,45.63,115.79,46.29,115.79,47.14z M111.81,47.14c0,0.64,0.13,1.13,0.39,1.46c0.26,0.33,0.64,0.5,1.15,0.5 c0.51,0,0.89-0.16,1.15-0.49s0.39-0.82,0.39-1.47c0-0.64-0.13-1.12-0.38-1.46c-0.26-0.33-0.64-0.5-1.14-0.5 c-0.51,0-0.9,0.17-1.16,0.5C111.94,46.01,111.81,46.5,111.81,47.14z"></path> <path class="st6" d="M121.22,49.76h-1.05l-2.56-4.16h-0.03l0.02,0.23c0.03,0.44,0.05,0.85,0.05,1.21v2.71h-0.77v-5.22h1.03 l2.56,4.14h0.02c0-0.06-0.01-0.25-0.03-0.6c-0.01-0.34-0.02-0.61-0.02-0.8v-2.73h0.78V49.76z"></path> <path class="st6" d="M125.8,49.76l-0.52-1.45h-1.99l-0.51,1.45h-0.9l1.95-5.24h0.93l1.95,5.24H125.8z M125.05,47.57l-0.49-1.42 c-0.04-0.09-0.09-0.24-0.15-0.45c-0.06-0.2-0.11-0.35-0.13-0.45c-0.06,0.29-0.16,0.61-0.28,0.96l-0.47,1.36H125.05z"></path> <path class="st6" d="M127.36,49.76v-5.22h0.85v4.49h2.21v0.73H127.36z"></path> <path class="st6" d="M133.14,49.76v-5.22h0.85v5.22H133.14z"></path> <path class="st6" d="M139.68,49.76h-1.05l-2.56-4.16h-0.03l0.02,0.23c0.03,0.44,0.05,0.85,0.05,1.21v2.71h-0.77v-5.22h1.03 l2.56,4.14h0.02c0-0.06-0.01-0.25-0.03-0.6c-0.01-0.34-0.02-0.61-0.02-0.8v-2.73h0.78V49.76z"></path> <path class="st6" d="M142.82,49.76h-0.85v-4.49h-1.53v-0.73h3.92v0.73h-1.53V49.76z"></path> <path class="st6" d="M148.07,49.76h-2.95v-5.22h2.95v0.72h-2.1v1.42h1.97v0.71h-1.97v1.64h2.1V49.76z"></path> <path class="st6" d="M151.29,46.92h1.92v2.62c-0.31,0.1-0.62,0.17-0.9,0.22c-0.29,0.04-0.6,0.06-0.94,0.06 c-0.79,0-1.4-0.23-1.83-0.7c-0.43-0.47-0.64-1.13-0.64-1.98c0-0.84,0.24-1.5,0.72-1.97c0.48-0.48,1.15-0.71,1.99-0.71 c0.54,0,1.06,0.1,1.55,0.31l-0.3,0.71c-0.42-0.19-0.85-0.29-1.27-0.29c-0.56,0-1,0.17-1.32,0.53c-0.32,0.35-0.49,0.83-0.49,1.43 c0,0.64,0.15,1.12,0.44,1.46c0.29,0.33,0.71,0.5,1.26,0.5c0.28,0,0.57-0.03,0.88-0.1v-1.35h-1.08V46.92z"></path> <path class="st6" d="M155.28,47.67v2.08h-0.85v-5.22h1.47c0.67,0,1.17,0.13,1.49,0.38c0.32,0.25,0.49,0.63,0.49,1.14 c0,0.65-0.34,1.11-1.01,1.39l1.47,2.31h-0.97l-1.25-2.08H155.28z M155.28,46.96h0.59c0.4,0,0.68-0.07,0.86-0.22 c0.18-0.15,0.27-0.37,0.27-0.66c0-0.29-0.1-0.51-0.29-0.64s-0.48-0.19-0.87-0.19h-0.56V46.96z"></path> <path class="st6" d="M162.3,49.76l-0.52-1.45h-1.99l-0.51,1.45h-0.9l1.95-5.24h0.93l1.95,5.24H162.3z M161.55,47.57l-0.49-1.42 c-0.04-0.09-0.09-0.24-0.15-0.45c-0.06-0.2-0.11-0.35-0.13-0.45c-0.06,0.29-0.16,0.61-0.28,0.96l-0.47,1.36H161.55z"></path> <path class="st6" d="M165.65,49.76h-0.85v-4.49h-1.53v-0.73h3.92v0.73h-1.53V49.76z"></path> <path class="st6" d="M167.95,49.76v-5.22h0.85v5.22H167.95z"></path> <path class="st6" d="M174.77,47.14c0,0.85-0.21,1.51-0.64,1.98c-0.43,0.47-1.03,0.71-1.8,0.71c-0.79,0-1.39-0.23-1.81-0.7 c-0.42-0.47-0.63-1.13-0.63-1.99c0-0.86,0.21-1.52,0.64-1.98c0.43-0.46,1.03-0.69,1.82-0.69c0.78,0,1.37,0.23,1.8,0.7 S174.77,46.29,174.77,47.14z M170.79,47.14c0,0.64,0.13,1.13,0.39,1.46c0.26,0.33,0.64,0.5,1.15,0.5c0.51,0,0.89-0.16,1.15-0.49 c0.26-0.33,0.39-0.82,0.39-1.47c0-0.64-0.13-1.12-0.38-1.46c-0.26-0.33-0.64-0.5-1.14-0.5c-0.51,0-0.9,0.17-1.16,0.5 C170.92,46.01,170.79,46.5,170.79,47.14z"></path> <path class="st6" d="M180.2,49.76h-1.05l-2.56-4.16h-0.03l0.02,0.23c0.03,0.44,0.05,0.85,0.05,1.21v2.71h-0.77v-5.22h1.03 l2.56,4.14h0.02c-0.01-0.06-0.01-0.25-0.03-0.6s-0.02-0.61-0.02-0.8v-2.73h0.78V49.76z"></path> </g> <g> <path class="st2" d="M26.29,40.78h-4.93c-0.21,0-0.37,0.17-0.37,0.37v0c0,0.21,0.17,0.37,0.37,0.37h5.26l0-0.01l-0.04-0.08 C26.45,41.18,26.36,41.12,26.29,40.78 M39.35,47.37H34.7c-0.2,0-0.37,0.17-0.37,0.37v0c0,0.21,0.17,0.37,0.37,0.37h4.49 C39.25,47.89,39.26,47.72,39.35,47.37z M41.49,53.93h-4.97c-0.21,0-0.37,0.17-0.37,0.37v0c0,0.21,0.17,0.37,0.37,0.37h4.74 L41.49,53.93L41.49,53.93z M42.53,60.51H39.6c-0.21,0-0.37,0.17-0.37,0.37v0c0,0.21,0.17,0.37,0.37,0.37h3.28 C42.75,61.06,42.63,60.83,42.53,60.51z M28.34,34.26H23.4c-0.21,0-0.37,0.17-0.37,0.37v0c0,0.21,0.17,0.37,0.37,0.37h4.52L28,34.89 C28.07,34.59,28.16,34.5,28.34,34.26z M54.22,49.35c0.09-0.31,1.26-1.66,1.48-1.85c0.17-0.14,0.33-0.28,0.48-0.41 c0.18-0.15,0.34-0.27,0.48-0.37c0.27-0.18,0.49-0.35,0.68-0.51c0.11-0.09,0.21-0.18,0.31-0.29c0.49-0.51,0.75-1.05,1.3-2.04 c0.47-0.86,0.9-1.37,0.88-2.6l-0.02,0.01v0c-0.17,0.05-0.32,0.1-0.47,0.14l-0.01,0l-0.02,0.01l-0.05,0.01l0,0 c-0.36,0.1-0.74,0.19-1.17,0.26c-0.1,0.02-0.21,0.04-0.34,0.07c-0.84,0.16-1.28,0.25-1.51,0.27c-0.11-0.07-0.19-0.14-0.24-0.19 c-0.02-0.06-0.06-0.13-0.18-0.2c-0.09-0.09-0.2-0.15-0.51-0.2l-0.05-0.01c0.43-0.38,0.28-0.19,0.37-0.48 c-0.69-1.08-1.63-1.36-1.83-1.49c-0.7-0.46,0.16-1.1-1.36-2.04c-0.22-1.29,0.02-1.66-0.91-2.28c-0.39,0.08-0.6,0.38-0.88,0.59 c-0.06,0.02-0.14,0.04-0.23,0.04c-0.92-0.12-1.64-0.05-2.63-0.05c-0.8,0-1.27-0.03-1.55-0.02l0,0l0,0c-0.5,0.03-0.37,0.2-0.4,0.95 l-0.18,0.09l-0.28,0.13l0,0.15l-0.03,2.01c-0.11,0.07-0.22,0.11-0.33,0.17c-0.1,0.04-0.17,0.07-0.26,0.19 c-0.12,0.12-0.23,0.31-0.32,0.61c-0.08,0.19-0.11,0.35-0.12,0.49c-0.01,0.08-0.03,0.16-0.04,0.25c0.03,0.03,0.07,0.06,0.1,0.11 c0.06,0.17,0.16,0.35,0.28,0.58c0.1,0.21,0.19,0.39,0.25,0.55c0.12,0.36,0.2,0.71,0.21,0.92c0.05,0.02,0.12,0.06,0.21,0.11 c0.06,0.05,0.14,0.11,0.24,0.19c0.51,0.4,0.21,0.3,0.64,0.64c0.06,0.06,0.07,0.07,0.08,0.06c0.09,0.07,0.2,0.18,0.3,0.3 c0.02,0.06,0.04,0.12,0.11,0.21c0.13,0.18,0.16,0.17,0.21,0.18c0.15,0.19,0.3,0.39,0.42,0.56c0.1,0.24,0.05,0.25,0.97,0.19l0.16,0 c0.14,0.22,0.25,0.32,0.33,0.4c0.05,0.06,0.11,0.11,0.16,0.18c0.03,0.06,0.05,0.15,0.06,0.3l0.01,0.48c0,0.05,0,0.1,0,0.15 c-0.46,0.64-0.58,0.5-0.68,1.61c0.56,0.02,0.93-0.06,1.24-0.11c0.16-0.02,0.32-0.03,0.47-0.04c0.26-0.01,0.56,0.07,0.86,0.18 c0.14,0.06,0.29,0.14,0.46,0.23c0.34,0.19,0.89,0.44,1.12,0.7c0.06,0.07,0.11,0.13,0.15,0.19c0.05,0.09,0.12,0.21,0.22,0.31 c0.12,0.15,0.28,0.26,0.6,0.31l0,0l0.01,0c0.05-0.04,0.09-0.08,0.13-0.13c0.1-0.11,0.15-0.21,0.19-0.3 c0.07-0.14,0.12-0.27,0.2-0.35c0.05-0.05,0.12-0.09,0.22-0.12L54.22,49.35z"></path> <path class="st3" d="M78.76,49.35l0.42,0.09l-0.14,0.69l2.02,0.42l-0.11,0.53l-2.02-0.42l-0.14,0.67l-0.42-0.09L78.76,49.35z M77.78,53.44l0.12-0.48l1.49-0.5c0.1-0.03,0.2-0.06,0.29-0.09c0.1-0.03,0.17-0.04,0.22-0.05l0-0.01c-0.17-0.03-0.34-0.06-0.5-0.1 c-0.16-0.04-0.33-0.09-0.5-0.13l-0.72-0.19l0.13-0.49l2.41,0.62l-0.12,0.48l-1.37,0.47c-0.06,0.02-0.12,0.04-0.18,0.06 c-0.06,0.02-0.12,0.03-0.18,0.05c-0.06,0.01-0.11,0.03-0.16,0.04c-0.05,0.01-0.09,0.02-0.12,0.02l0,0.01 c0.18,0.03,0.35,0.07,0.51,0.11c0.16,0.04,0.33,0.08,0.5,0.13l0.73,0.19l-0.13,0.49L77.78,53.44z M77.15,55.14l0.54-1.53l0.39,0.14 l-0.36,1.02l0.54,0.19l0.33-0.92l0.39,0.14l-0.33,0.92l0.63,0.22l0.36-1.03l0.4,0.14l-0.55,1.54L77.15,55.14z M76.06,57.95 l0.25-0.64l1.19,0.09c0.05,0,0.11,0.01,0.17,0.01c0.06,0.01,0.12,0.01,0.18,0.02c0.06,0.01,0.12,0.01,0.17,0.02 c0.06,0.01,0.11,0.02,0.15,0.03l0.01-0.01c-0.04-0.02-0.08-0.05-0.13-0.08c-0.05-0.03-0.1-0.07-0.15-0.11 c-0.05-0.04-0.1-0.07-0.15-0.11c-0.05-0.04-0.09-0.07-0.13-0.1l-0.93-0.74l0.25-0.64l2.38,0.74l-0.19,0.47 c-0.26-0.09-0.52-0.17-0.78-0.26c-0.26-0.09-0.52-0.18-0.78-0.28l-0.3-0.12l0,0.01c0.12,0.09,0.25,0.18,0.38,0.27 c0.13,0.1,0.25,0.18,0.34,0.26l0.9,0.73l-0.15,0.39l-1.17-0.07c-0.15-0.01-0.3-0.03-0.47-0.05c-0.16-0.02-0.3-0.04-0.42-0.06 l0,0.01c0.09,0.03,0.18,0.07,0.28,0.11c0.1,0.04,0.19,0.08,0.28,0.12c0.09,0.04,0.19,0.08,0.28,0.12c0.09,0.04,0.17,0.08,0.25,0.11 l0.72,0.34l-0.18,0.47L76.06,57.95z M75.16,59.68l0.73-1.44l0.37,0.19l-0.49,0.96l0.51,0.26l0.44-0.87l0.37,0.19l-0.44,0.87 l0.6,0.3l0.49-0.97l0.37,0.19l-0.74,1.46L75.16,59.68z M75.43,61.59l0.11-0.19c0.03-0.06,0.06-0.12,0.08-0.18 c0.02-0.06,0.03-0.12,0.03-0.17c0-0.06-0.02-0.11-0.05-0.15c-0.03-0.05-0.08-0.09-0.14-0.13c-0.11-0.06-0.22-0.07-0.31-0.03 c-0.1,0.05-0.18,0.13-0.24,0.24l-0.13,0.23L75.43,61.59z M74.15,61.48l0.43-0.76c0.07-0.13,0.15-0.23,0.24-0.32 c0.09-0.08,0.18-0.15,0.28-0.19c0.1-0.04,0.2-0.06,0.3-0.05c0.1,0.01,0.21,0.04,0.31,0.1c0.12,0.07,0.22,0.15,0.28,0.25 c0.06,0.1,0.1,0.2,0.11,0.31c0.01,0.11,0,0.23-0.03,0.35c-0.03,0.12-0.08,0.24-0.15,0.36l-0.14,0.25l0.79,0.45l-0.27,0.47 L74.15,61.48z M74.31,63.42l0.12-0.19c0.04-0.06,0.07-0.12,0.09-0.18c0.02-0.06,0.03-0.12,0.03-0.17c0-0.06-0.02-0.11-0.04-0.15 c-0.03-0.05-0.07-0.09-0.14-0.13c-0.11-0.07-0.21-0.08-0.31-0.04c-0.1,0.04-0.18,0.12-0.25,0.23l-0.14,0.22L74.31,63.42z M73.03,63.27l0.46-0.74c0.08-0.12,0.16-0.23,0.25-0.31c0.09-0.08,0.19-0.14,0.29-0.18c0.1-0.04,0.2-0.05,0.3-0.04 c0.1,0.01,0.21,0.05,0.31,0.11c0.12,0.08,0.21,0.16,0.27,0.26c0.06,0.1,0.09,0.2,0.1,0.32c0.01,0.11,0,0.23-0.04,0.35 c-0.04,0.12-0.09,0.24-0.16,0.36l-0.15,0.24l0.77,0.48l-0.29,0.46L73.03,63.27z M72.8,65.69c0.12,0.09,0.23,0.15,0.34,0.19 c0.11,0.04,0.21,0.05,0.3,0.05c0.09,0,0.18-0.03,0.26-0.07c0.08-0.04,0.14-0.1,0.2-0.17c0.05-0.07,0.09-0.15,0.11-0.24 c0.02-0.09,0.02-0.17,0-0.26c-0.02-0.09-0.07-0.18-0.13-0.28c-0.07-0.09-0.16-0.18-0.28-0.27c-0.12-0.09-0.24-0.16-0.35-0.2 c-0.11-0.04-0.21-0.06-0.31-0.05c-0.09,0-0.18,0.03-0.26,0.07c-0.08,0.04-0.14,0.1-0.2,0.18c-0.06,0.07-0.09,0.15-0.11,0.24 c-0.02,0.09-0.02,0.17,0.01,0.26c0.02,0.09,0.07,0.18,0.14,0.28C72.59,65.51,72.68,65.6,72.8,65.69z M72.17,64.37 c0.11-0.14,0.23-0.25,0.37-0.34c0.14-0.08,0.28-0.14,0.43-0.16c0.15-0.02,0.31-0.01,0.48,0.04c0.17,0.05,0.33,0.13,0.49,0.26 c0.16,0.12,0.28,0.25,0.37,0.4c0.09,0.15,0.14,0.3,0.16,0.45c0.02,0.16,0.01,0.31-0.03,0.47c-0.04,0.16-0.12,0.31-0.23,0.45 c-0.11,0.14-0.23,0.25-0.36,0.34c-0.14,0.09-0.28,0.14-0.43,0.16c-0.15,0.02-0.31,0.01-0.48-0.04c-0.16-0.05-0.33-0.13-0.49-0.26 c-0.16-0.12-0.28-0.26-0.37-0.4c-0.09-0.15-0.14-0.3-0.17-0.45c-0.02-0.16-0.01-0.31,0.03-0.47 C71.99,64.66,72.07,64.51,72.17,64.37z M70.46,66.6l0.34-0.42l1.6,1.3l0.63-0.78l0.33,0.27l-0.98,1.2L70.46,66.6z M69.19,68.02 l1.08-1.21l0.31,0.28l-0.72,0.81l0.42,0.38l0.65-0.73l0.31,0.28l-0.65,0.73L71.1,69l0.73-0.81l0.31,0.28l-1.09,1.22L69.19,68.02z M67.86,69.31l1.17,0.64c0.04,0.02,0.08,0.05,0.14,0.08c0.05,0.03,0.11,0.06,0.17,0.1c0.06,0.03,0.11,0.07,0.17,0.1 c0.06,0.03,0.1,0.07,0.15,0.1l0.01-0.01c-0.05-0.09-0.11-0.19-0.17-0.32c-0.06-0.12-0.11-0.23-0.16-0.33l-0.56-1.21l0.41-0.38 l1.06,2.42l-0.43,0.4l-2.36-1.2L67.86,69.31z M69.7,67l-0.33,0.37l-0.08-0.58l0.44-0.46L69.7,67z M66.2,70.78l1.23-1.06l0.27,0.32 l-0.82,0.7l0.37,0.43l0.74-0.64l0.27,0.31l-0.74,0.64L67.96,72l0.83-0.71l0.27,0.32l-1.24,1.06L66.2,70.78z M65.99,73.62l0.14-0.12 c0.09-0.07,0.16-0.15,0.22-0.23c0.06-0.09,0.1-0.18,0.12-0.28c0.02-0.1,0.01-0.21-0.02-0.33c-0.03-0.12-0.1-0.24-0.21-0.38 c-0.16-0.19-0.33-0.3-0.53-0.31c-0.19-0.01-0.38,0.05-0.57,0.21l-0.2,0.16L65.99,73.62z M64.94,71.81c0.15-0.12,0.3-0.21,0.46-0.27 c0.15-0.06,0.31-0.09,0.46-0.08c0.15,0.01,0.3,0.05,0.44,0.12c0.14,0.08,0.27,0.19,0.4,0.35c0.14,0.18,0.24,0.35,0.28,0.52 c0.04,0.17,0.05,0.34,0.02,0.5c-0.03,0.16-0.1,0.32-0.2,0.46c-0.1,0.15-0.22,0.28-0.37,0.4l-0.59,0.48l-1.57-1.94L64.94,71.81z M61.88,73.95l1.34-0.91l0.23,0.35L62.56,74l0.32,0.47l0.81-0.55l0.23,0.34l-0.81,0.55l0.37,0.55l0.9-0.61l0.23,0.35l-1.35,0.91 L61.88,73.95z M60.41,74.8l0.47-0.28l1.06,1.77l0.86-0.51l0.22,0.37l-1.33,0.79L60.41,74.8z M58.63,77l0.19-0.1 c0.13-0.06,0.22-0.14,0.27-0.23c0.06-0.09,0.05-0.2-0.01-0.32c-0.05-0.11-0.13-0.17-0.22-0.2c-0.09-0.03-0.2-0.01-0.33,0.06 l-0.24,0.12L58.63,77z M57.63,76.2l0.85-0.42c0.13-0.06,0.24-0.1,0.36-0.11c0.11-0.01,0.22,0,0.31,0.03 c0.09,0.03,0.18,0.08,0.25,0.15c0.07,0.07,0.13,0.15,0.18,0.25c0.04,0.09,0.07,0.18,0.08,0.26c0.01,0.08,0,0.16-0.01,0.23 c-0.02,0.07-0.04,0.14-0.07,0.2c-0.03,0.06-0.07,0.11-0.11,0.16l1,0.63l-0.56,0.28l-0.84-0.61l-0.26,0.13l0.41,0.82l-0.48,0.24 L57.63,76.2z M55.41,77.09l0.5-0.2l0.55,1.38c0.08,0.19,0.17,0.32,0.29,0.39c0.12,0.07,0.26,0.07,0.42,0.01 c0.16-0.06,0.25-0.16,0.28-0.29c0.03-0.13,0.01-0.27-0.05-0.43l-0.57-1.43l0.5-0.2l0.56,1.39c0.13,0.32,0.15,0.6,0.05,0.82 c-0.1,0.22-0.3,0.4-0.62,0.52c-0.3,0.12-0.57,0.14-0.81,0.05c-0.24-0.09-0.42-0.3-0.56-0.64L55.41,77.09z M53.77,79 c0.05,0.14,0.11,0.26,0.18,0.35c0.07,0.09,0.14,0.16,0.23,0.21c0.08,0.05,0.17,0.08,0.25,0.08c0.09,0.01,0.17,0,0.26-0.03 c0.08-0.03,0.16-0.07,0.22-0.13c0.06-0.06,0.11-0.13,0.14-0.22c0.03-0.09,0.04-0.19,0.04-0.3c0-0.11-0.03-0.24-0.08-0.38 c-0.05-0.14-0.11-0.26-0.18-0.36c-0.07-0.09-0.15-0.16-0.23-0.21c-0.08-0.05-0.17-0.08-0.25-0.08c-0.09-0.01-0.17,0.01-0.26,0.04 c-0.09,0.03-0.16,0.08-0.22,0.14c-0.06,0.06-0.11,0.13-0.14,0.22c-0.03,0.09-0.04,0.19-0.04,0.31C53.69,78.73,53.72,78.86,53.77,79 z M53.97,77.56c0.17-0.06,0.33-0.08,0.49-0.08c0.16,0.01,0.31,0.04,0.45,0.11c0.14,0.07,0.26,0.17,0.37,0.3 c0.11,0.13,0.2,0.29,0.27,0.49c0.07,0.19,0.09,0.37,0.09,0.54c-0.01,0.17-0.05,0.33-0.11,0.47c-0.07,0.14-0.16,0.26-0.29,0.37 c-0.12,0.11-0.27,0.19-0.44,0.25c-0.17,0.06-0.33,0.08-0.49,0.08c-0.16,0-0.31-0.04-0.45-0.11c-0.14-0.07-0.26-0.17-0.37-0.3 c-0.11-0.13-0.2-0.29-0.27-0.49c-0.07-0.19-0.09-0.37-0.09-0.54c0.01-0.17,0.05-0.33,0.11-0.47c0.07-0.14,0.16-0.27,0.29-0.37 C53.66,77.7,53.81,77.62,53.97,77.56z M51.82,79.44l0.21-0.05c0.07-0.02,0.13-0.04,0.19-0.06c0.06-0.03,0.1-0.06,0.14-0.1 c0.04-0.04,0.06-0.09,0.08-0.14c0.01-0.05,0.01-0.12-0.01-0.19c-0.03-0.13-0.1-0.21-0.2-0.24c-0.1-0.04-0.21-0.04-0.34-0.01 l-0.26,0.06L51.82,79.44z M51.01,78.43l0.85-0.21c0.14-0.04,0.27-0.05,0.39-0.05c0.12,0,0.23,0.03,0.33,0.07 c0.1,0.04,0.18,0.11,0.24,0.19c0.07,0.08,0.11,0.18,0.14,0.3C53,78.87,53,79,52.98,79.11c-0.03,0.11-0.08,0.21-0.15,0.3 c-0.07,0.09-0.16,0.16-0.27,0.22c-0.11,0.06-0.23,0.11-0.36,0.14l-0.28,0.07l0.22,0.88l-0.53,0.13L51.01,78.43z M48.21,78.99 l1.6-0.24l0.06,0.41l-1.07,0.16l0.08,0.56l0.97-0.14l0.06,0.41l-0.97,0.14l0.1,0.66l1.08-0.16l0.06,0.41l-1.61,0.24L48.21,78.99z M46.5,79.21l0.54-0.06l0.23,2.05l1-0.11l0.05,0.42l-1.54,0.17L46.5,79.21z M44.83,79.35l0.56-0.04l1.09,2.42l-0.57,0.04 l-0.23-0.56l-0.88,0.06l-0.15,0.59l-0.56,0.04L44.83,79.35z M44.89,80.87l0.63-0.04l-0.14-0.32c-0.04-0.1-0.09-0.2-0.12-0.3 c-0.04-0.1-0.08-0.2-0.11-0.31l-0.01,0c-0.02,0.1-0.05,0.21-0.07,0.31c-0.03,0.11-0.06,0.21-0.08,0.32L44.89,80.87z M44.16,79.4 l0.01,0.43l-0.7,0.02l0.06,2.06l-0.54,0.01l-0.06-2.06l-0.69,0.02l-0.01-0.43L44.16,79.4z M39.98,79.38l0.49,0.01l0.82,1.34 c0.06,0.09,0.11,0.18,0.15,0.27c0.05,0.09,0.08,0.15,0.1,0.2l0.01,0c-0.01-0.17-0.01-0.34-0.01-0.51c0-0.17,0.01-0.34,0.01-0.52 l0.02-0.75l0.5,0.01l-0.07,2.49l-0.49-0.01l-0.76-1.23c-0.03-0.05-0.06-0.11-0.1-0.17c-0.03-0.06-0.06-0.11-0.09-0.17 c-0.03-0.05-0.05-0.1-0.07-0.15c-0.02-0.04-0.04-0.08-0.05-0.11l-0.01,0c0.01,0.18,0.01,0.36,0.01,0.52c0,0.17-0.01,0.34-0.01,0.51 l-0.02,0.75l-0.51-0.01L39.98,79.38z M38.17,79.18l1.61,0.18l-0.05,0.42l-1.07-0.12l-0.06,0.57l0.97,0.11l-0.05,0.41l-0.97-0.11 l-0.07,0.66l1.08,0.12l-0.05,0.42l-1.62-0.18L38.17,79.18z M35.19,78.76l0.68,0.1l0.18,1.18c0.01,0.05,0.02,0.11,0.02,0.17 c0.01,0.06,0.02,0.12,0.02,0.18c0.01,0.06,0.01,0.12,0.02,0.17c0,0.06,0.01,0.11,0.01,0.16l0.02,0c0.01-0.04,0.03-0.09,0.05-0.14 c0.02-0.05,0.04-0.11,0.07-0.17c0.02-0.06,0.05-0.11,0.07-0.17c0.02-0.05,0.05-0.1,0.07-0.15l0.51-1.07l0.68,0.1l-0.19,2.49 l-0.5-0.08c0.03-0.27,0.05-0.55,0.08-0.82c0.03-0.27,0.06-0.55,0.09-0.83l0.05-0.32l-0.01,0c-0.06,0.14-0.12,0.28-0.18,0.43 c-0.06,0.15-0.12,0.28-0.18,0.39l-0.52,1.04l-0.41-0.06l-0.19-1.15c-0.02-0.15-0.04-0.3-0.06-0.46c-0.02-0.16-0.03-0.3-0.03-0.42 l-0.01,0c-0.01,0.09-0.03,0.19-0.05,0.29c-0.02,0.1-0.04,0.2-0.06,0.31c-0.02,0.1-0.04,0.2-0.06,0.3c-0.02,0.1-0.04,0.19-0.05,0.27 l-0.17,0.78l-0.5-0.08L35.19,78.76z M33.31,78.28l1.57,0.4l-0.1,0.41l-1.05-0.26l-0.14,0.55l0.95,0.24l-0.1,0.4l-0.95-0.24 l-0.16,0.65l1.06,0.27l-0.1,0.41l-1.58-0.4L33.31,78.28z M30.88,77.59l0.47,0.14l0.45,1.5c0.03,0.1,0.06,0.2,0.08,0.3 c0.02,0.1,0.04,0.17,0.04,0.22l0.01,0c0.03-0.17,0.07-0.33,0.12-0.5c0.05-0.16,0.1-0.33,0.15-0.49l0.21-0.72l0.48,0.14l-0.71,2.39 l-0.47-0.14l-0.42-1.39c-0.02-0.06-0.03-0.12-0.05-0.19c-0.02-0.06-0.03-0.12-0.04-0.18c-0.01-0.06-0.02-0.11-0.03-0.16 c-0.01-0.05-0.01-0.09-0.02-0.12l-0.01,0c-0.04,0.18-0.08,0.35-0.13,0.51c-0.05,0.16-0.09,0.32-0.14,0.49l-0.21,0.72l-0.49-0.14 L30.88,77.59z M29,78.16l0.2,0.07c0.13,0.05,0.25,0.06,0.36,0.03c0.1-0.03,0.18-0.1,0.22-0.23c0.04-0.11,0.03-0.21-0.01-0.3 c-0.05-0.08-0.14-0.15-0.27-0.19l-0.26-0.09L29,78.16z M28.86,76.89l0.89,0.31c0.13,0.05,0.24,0.1,0.33,0.18 c0.09,0.07,0.15,0.15,0.2,0.24c0.04,0.09,0.07,0.18,0.07,0.28c0,0.1-0.01,0.2-0.05,0.3c-0.03,0.09-0.08,0.17-0.13,0.24 c-0.05,0.06-0.11,0.11-0.17,0.15c-0.06,0.04-0.13,0.07-0.19,0.08c-0.07,0.02-0.13,0.03-0.19,0.04l0.25,1.15l-0.59-0.2l-0.16-1.02 l-0.27-0.09l-0.3,0.87l-0.51-0.17L28.86,76.89z M27.24,76.16l1.48,0.67l-0.17,0.38l-0.98-0.45l-0.23,0.52l0.89,0.4l-0.17,0.38 l-0.89-0.4l-0.28,0.61l0.99,0.45l-0.17,0.38l-1.49-0.67L27.24,76.16z M25.46,75.3l-0.2,1.32c-0.01,0.04-0.02,0.1-0.03,0.16 s-0.02,0.12-0.03,0.19c-0.01,0.06-0.02,0.13-0.04,0.19c-0.01,0.06-0.03,0.12-0.04,0.17l0.01,0.01c0.06-0.08,0.14-0.17,0.24-0.27 c0.1-0.1,0.18-0.19,0.26-0.27l0.94-0.95l0.5,0.25l-1.91,1.83l-0.53-0.26l0.31-2.63L25.46,75.3z M23.01,73.94l0.47,0.27l-0.73,1.3 c-0.1,0.18-0.14,0.34-0.12,0.47c0.02,0.13,0.11,0.24,0.26,0.33c0.15,0.08,0.28,0.1,0.4,0.04c0.12-0.06,0.22-0.16,0.31-0.31 l0.76-1.34l0.47,0.27l-0.74,1.3c-0.17,0.3-0.37,0.49-0.61,0.55c-0.23,0.06-0.5,0.01-0.8-0.15c-0.28-0.16-0.47-0.36-0.54-0.6 c-0.08-0.24-0.03-0.52,0.15-0.83L23.01,73.94z M20.58,73.8c-0.08,0.12-0.14,0.24-0.17,0.35c-0.03,0.11-0.04,0.21-0.03,0.31 c0.01,0.09,0.04,0.18,0.08,0.25c0.05,0.07,0.11,0.14,0.18,0.19c0.07,0.05,0.15,0.08,0.24,0.1c0.09,0.02,0.17,0.01,0.26-0.02 c0.09-0.03,0.18-0.08,0.27-0.15c0.09-0.07,0.18-0.17,0.26-0.29c0.09-0.13,0.14-0.25,0.18-0.36c0.03-0.11,0.04-0.21,0.03-0.31 c-0.01-0.09-0.04-0.18-0.09-0.25c-0.05-0.07-0.11-0.14-0.19-0.19c-0.08-0.05-0.16-0.08-0.24-0.1c-0.09-0.01-0.17-0.01-0.26,0.02 c-0.09,0.03-0.18,0.08-0.27,0.15C20.75,73.58,20.66,73.68,20.58,73.8z M21.85,73.1c0.15,0.1,0.27,0.21,0.36,0.35 c0.09,0.13,0.15,0.27,0.18,0.42c0.03,0.15,0.02,0.31-0.02,0.48c-0.04,0.17-0.12,0.34-0.23,0.51c-0.11,0.17-0.24,0.3-0.38,0.39 c-0.14,0.1-0.29,0.16-0.44,0.19c-0.15,0.03-0.31,0.03-0.47-0.01c-0.16-0.04-0.31-0.1-0.46-0.2c-0.15-0.1-0.27-0.21-0.36-0.34 c-0.09-0.13-0.15-0.27-0.18-0.42c-0.03-0.15-0.02-0.31,0.01-0.48c0.04-0.17,0.11-0.34,0.23-0.51c0.11-0.17,0.24-0.3,0.38-0.39 c0.14-0.1,0.29-0.16,0.44-0.19c0.15-0.03,0.31-0.03,0.47,0.01C21.56,72.94,21.71,73,21.85,73.1z M20.07,71.83 c0.12,0.1,0.22,0.19,0.3,0.29c0.08,0.1,0.14,0.19,0.19,0.29l-0.32,0.21c-0.04-0.09-0.1-0.18-0.16-0.26 c-0.06-0.08-0.13-0.15-0.2-0.21c-0.08-0.07-0.17-0.12-0.27-0.15c-0.1-0.03-0.2-0.04-0.3-0.03c-0.1,0.01-0.2,0.05-0.31,0.11 c-0.1,0.06-0.21,0.16-0.31,0.28c-0.18,0.22-0.27,0.44-0.27,0.64c0,0.2,0.1,0.37,0.28,0.52c0.11,0.09,0.19,0.14,0.26,0.16l0.36-0.45 l-0.32-0.26l0.25-0.31l0.72,0.58l-0.79,0.98c-0.11-0.03-0.22-0.08-0.35-0.14c-0.12-0.06-0.26-0.15-0.39-0.26 c-0.14-0.12-0.26-0.25-0.35-0.39c-0.09-0.14-0.15-0.29-0.17-0.45c-0.02-0.16-0.01-0.32,0.04-0.49c0.05-0.17,0.14-0.33,0.27-0.49 c0.13-0.16,0.27-0.29,0.43-0.37c0.15-0.08,0.31-0.13,0.47-0.14c0.16-0.01,0.32,0.01,0.48,0.07C19.77,71.63,19.92,71.72,20.07,71.83 z M17.14,70.96l0.16,0.14c0.11,0.09,0.21,0.15,0.32,0.17c0.11,0.02,0.2-0.03,0.29-0.13c0.08-0.09,0.11-0.18,0.1-0.28 c-0.01-0.1-0.07-0.19-0.17-0.28l-0.2-0.18L17.14,70.96z M17.5,69.73l0.71,0.63c0.1,0.09,0.18,0.19,0.24,0.29 c0.05,0.1,0.08,0.2,0.09,0.3c0.01,0.1-0.01,0.2-0.04,0.29c-0.04,0.09-0.09,0.18-0.16,0.26c-0.07,0.08-0.14,0.13-0.21,0.17 c-0.07,0.04-0.15,0.06-0.22,0.08c-0.07,0.01-0.14,0.01-0.21,0c-0.07-0.01-0.13-0.02-0.18-0.04l-0.21,1.16l-0.47-0.41l0.25-1 l-0.22-0.19l-0.61,0.69l-0.4-0.36L17.5,69.73z M16.12,68.41l1.17,1.13L17,69.84l-0.78-0.75l-0.4,0.41l0.7,0.68l-0.29,0.3l-0.7-0.68 l-0.46,0.48l0.79,0.76l-0.29,0.3l-1.17-1.13L16.12,68.41z M15.99,68.26l-0.31,0.3l-0.49-0.51l-1.48,1.43l-0.38-0.39l1.48-1.43 l-0.48-0.49l0.31-0.3L15.99,68.26z M13.3,65.18l0.31,0.39l-0.49,1.49c-0.03,0.1-0.07,0.2-0.11,0.29c-0.04,0.09-0.07,0.16-0.09,0.21 l0,0.01c0.12-0.12,0.25-0.23,0.39-0.34c0.13-0.11,0.27-0.21,0.4-0.32l0.58-0.47l0.31,0.39l-1.95,1.55l-0.31-0.39l0.45-1.38 c0.02-0.06,0.04-0.12,0.07-0.18c0.02-0.06,0.05-0.12,0.07-0.17c0.02-0.06,0.04-0.11,0.06-0.15c0.02-0.04,0.04-0.08,0.05-0.11 l0-0.01c-0.13,0.12-0.27,0.24-0.4,0.34c-0.13,0.11-0.26,0.21-0.4,0.32l-0.59,0.47l-0.32-0.4L13.3,65.18z M13.04,64.84l-2.01,1.48 l-0.32-0.44l2.01-1.48L13.04,64.84z M11.71,62.51l-0.24-0.36l0.58-0.01l0.32,0.48L11.71,62.51z M11.03,61.96l0.9,1.35l-0.35,0.23 l-0.6-0.9l-0.47,0.32l0.54,0.81L10.71,64l-0.54-0.81l-0.56,0.37l0.61,0.91L9.87,64.7l-0.91-1.36L11.03,61.96z M10.96,61.8 l-0.37,0.22l-0.36-0.6l-1.76,1.07l-0.28-0.46l1.77-1.07l-0.36-0.59l0.37-0.22L10.96,61.8z M9.9,59.96l-2.18,1.2l-0.26-0.47 l2.18-1.2L9.9,59.96z M7.92,58.57l0.09,0.19c0.06,0.13,0.14,0.22,0.23,0.28c0.09,0.06,0.2,0.06,0.32,0 c0.11-0.05,0.17-0.12,0.2-0.22c0.03-0.09,0.01-0.2-0.05-0.33l-0.12-0.25L7.92,58.57z M8.72,57.58l0.41,0.85 c0.06,0.13,0.1,0.25,0.11,0.36c0.01,0.11,0,0.22-0.03,0.31c-0.03,0.09-0.08,0.18-0.15,0.25c-0.07,0.07-0.15,0.13-0.25,0.18 c-0.09,0.04-0.18,0.07-0.26,0.08c-0.08,0.01-0.16,0-0.23-0.02c-0.07-0.02-0.14-0.04-0.2-0.08c-0.06-0.03-0.11-0.07-0.16-0.11 L7.32,60.4l-0.27-0.56l0.62-0.83l-0.13-0.26l-0.83,0.4l-0.23-0.48L8.72,57.58z M6.77,56.09c-0.14,0.05-0.25,0.12-0.34,0.19 c-0.09,0.07-0.16,0.15-0.2,0.23c-0.05,0.08-0.07,0.17-0.07,0.26c0,0.09,0.01,0.17,0.04,0.26c0.03,0.08,0.08,0.16,0.14,0.22 c0.06,0.06,0.14,0.11,0.23,0.14c0.09,0.03,0.19,0.04,0.3,0.03c0.11-0.01,0.24-0.04,0.38-0.09c0.14-0.06,0.26-0.12,0.35-0.19 c0.09-0.07,0.16-0.15,0.2-0.23c0.05-0.08,0.07-0.17,0.07-0.26c0-0.09-0.01-0.17-0.05-0.26c-0.03-0.09-0.08-0.16-0.14-0.22 c-0.06-0.06-0.14-0.1-0.23-0.13C7.36,56,7.26,55.99,7.15,56C7.03,56.01,6.9,56.04,6.77,56.09z M8.21,56.25 c0.06,0.16,0.1,0.33,0.1,0.49c0,0.16-0.03,0.31-0.09,0.45c-0.06,0.14-0.16,0.27-0.29,0.38c-0.13,0.12-0.29,0.21-0.48,0.29 c-0.19,0.07-0.37,0.11-0.54,0.11c-0.17,0-0.33-0.03-0.47-0.1c-0.14-0.06-0.27-0.15-0.38-0.27c-0.11-0.12-0.2-0.26-0.26-0.43 c-0.06-0.16-0.1-0.33-0.1-0.49c0-0.16,0.03-0.31,0.09-0.45c0.06-0.14,0.16-0.27,0.28-0.38c0.13-0.12,0.29-0.21,0.48-0.28 c0.19-0.07,0.37-0.11,0.54-0.11c0.17,0,0.33,0.03,0.47,0.1c0.14,0.06,0.27,0.15,0.38,0.27C8.06,55.94,8.15,56.08,8.21,56.25z M7.73,55.14l-0.41,0.13L7.11,54.6l-1.96,0.65l-0.17-0.51l1.96-0.65l-0.22-0.65l0.41-0.13L7.73,55.14z M6.52,51.13l0.15,0.52 l-1.43,0.41c-0.2,0.06-0.34,0.14-0.42,0.25c-0.08,0.11-0.1,0.25-0.05,0.41c0.05,0.16,0.13,0.27,0.26,0.31 c0.12,0.04,0.27,0.04,0.43,0l1.48-0.42l0.15,0.52l-1.44,0.41c-0.33,0.09-0.61,0.08-0.82-0.04c-0.21-0.12-0.36-0.34-0.46-0.67 c-0.09-0.31-0.08-0.59,0.04-0.81c0.11-0.23,0.34-0.39,0.69-0.49L6.52,51.13z M6.22,49.61l0.11,0.55l-2.27,1.37l-0.11-0.56l0.53-0.3 L4.3,49.8l-0.6-0.08L3.6,49.16L6.22,49.61z M4.72,49.85l0.12,0.62l0.3-0.17c0.09-0.06,0.19-0.11,0.29-0.16 c0.1-0.05,0.19-0.1,0.29-0.15l0-0.01c-0.1-0.01-0.21-0.02-0.32-0.04c-0.11-0.01-0.22-0.03-0.33-0.05L4.72,49.85z M81.94,37.45 l-0.5,0.08l-0.13-0.82l-2.4,0.39l-0.1-0.63l2.4-0.39l-0.13-0.8l0.5-0.08L81.94,37.45z M80.84,32.26l0.15,0.56l-1.23,1.37 c-0.08,0.09-0.17,0.18-0.25,0.26c-0.08,0.08-0.15,0.14-0.2,0.18l0,0.01c0.19-0.07,0.38-0.13,0.57-0.18 c0.19-0.05,0.39-0.1,0.59-0.16l0.85-0.23l0.15,0.57l-2.83,0.76l-0.15-0.56l1.13-1.28c0.05-0.05,0.1-0.11,0.16-0.16 c0.05-0.05,0.11-0.11,0.16-0.16c0.05-0.05,0.1-0.09,0.14-0.13c0.04-0.04,0.08-0.07,0.11-0.09l0-0.01c-0.2,0.07-0.4,0.13-0.59,0.18 c-0.19,0.05-0.38,0.11-0.58,0.16l-0.86,0.23l-0.15-0.58L80.84,32.26z M80.11,29.92l0.59,1.81l-0.47,0.15l-0.39-1.21l-0.64,0.21 l0.35,1.09l-0.46,0.15l-0.35-1.09l-0.75,0.24l0.4,1.22l-0.47,0.15l-0.59-1.83L80.11,29.92z M78.66,26.34l0.32,0.74L77.93,28 c-0.05,0.04-0.1,0.08-0.15,0.13c-0.05,0.05-0.11,0.09-0.16,0.13c-0.06,0.04-0.11,0.09-0.16,0.13c-0.05,0.04-0.1,0.08-0.15,0.11 l0.01,0.02c0.05-0.01,0.11-0.02,0.17-0.04c0.07-0.01,0.14-0.02,0.21-0.04c0.07-0.01,0.14-0.02,0.21-0.03 c0.07-0.01,0.13-0.02,0.19-0.03l1.39-0.16l0.32,0.74l-2.6,1.37l-0.24-0.55c0.29-0.15,0.58-0.29,0.87-0.44 c0.29-0.15,0.58-0.29,0.88-0.42l0.35-0.16l-0.01-0.01c-0.17,0.03-0.35,0.06-0.54,0.09c-0.19,0.03-0.36,0.05-0.5,0.07l-1.36,0.14 l-0.2-0.45l1.03-0.91c0.13-0.12,0.28-0.23,0.43-0.35c0.15-0.12,0.29-0.22,0.4-0.3l-0.01-0.01c-0.1,0.04-0.21,0.09-0.32,0.14 c-0.11,0.05-0.23,0.09-0.34,0.13c-0.11,0.04-0.22,0.09-0.33,0.13c-0.11,0.04-0.21,0.08-0.3,0.11l-0.88,0.32l-0.24-0.54L78.66,26.34 z M76.46,24.99l0.12,0.23c0.04,0.07,0.08,0.14,0.12,0.2c0.04,0.06,0.1,0.11,0.15,0.14c0.06,0.03,0.12,0.05,0.18,0.05 c0.07,0,0.14-0.02,0.21-0.05c0.14-0.07,0.21-0.16,0.23-0.29c0.02-0.12-0.01-0.26-0.08-0.4l-0.14-0.28L76.46,24.99z M77.41,23.81 l0.46,0.92c0.08,0.15,0.13,0.3,0.15,0.44c0.02,0.14,0.02,0.27,0,0.4c-0.03,0.12-0.08,0.23-0.15,0.33c-0.08,0.1-0.18,0.18-0.31,0.24 c-0.15,0.07-0.29,0.11-0.43,0.11c-0.14,0-0.26-0.03-0.38-0.09c-0.12-0.06-0.23-0.15-0.32-0.26c-0.1-0.11-0.18-0.24-0.25-0.38 l-0.15-0.3l-0.96,0.47l-0.28-0.57L77.41,23.81z M74.63,22.1c-0.15,0.09-0.26,0.19-0.35,0.29c-0.09,0.1-0.15,0.21-0.18,0.31 c-0.03,0.11-0.05,0.21-0.03,0.31c0.01,0.1,0.05,0.2,0.11,0.29c0.06,0.09,0.13,0.16,0.21,0.22c0.09,0.06,0.18,0.09,0.29,0.11 c0.11,0.01,0.23,0,0.36-0.03c0.13-0.03,0.27-0.1,0.42-0.19c0.15-0.09,0.27-0.19,0.36-0.3c0.09-0.1,0.15-0.21,0.19-0.31 c0.03-0.11,0.04-0.21,0.03-0.31c-0.02-0.1-0.05-0.2-0.11-0.29c-0.06-0.09-0.13-0.17-0.21-0.22c-0.09-0.06-0.18-0.09-0.29-0.1 c-0.11-0.01-0.23,0-0.36,0.03C74.92,21.95,74.78,22.01,74.63,22.1z M76.34,21.97c0.11,0.18,0.18,0.36,0.22,0.54 c0.04,0.19,0.03,0.37-0.01,0.54c-0.04,0.18-0.12,0.34-0.25,0.51c-0.12,0.16-0.29,0.31-0.49,0.43c-0.2,0.12-0.4,0.2-0.6,0.24 c-0.2,0.03-0.39,0.03-0.57-0.01c-0.18-0.04-0.35-0.12-0.5-0.24c-0.15-0.11-0.28-0.26-0.39-0.44c-0.11-0.18-0.18-0.36-0.22-0.54 c-0.04-0.19-0.03-0.37,0.01-0.54c0.04-0.18,0.12-0.34,0.25-0.51c0.12-0.16,0.28-0.31,0.49-0.43c0.2-0.12,0.4-0.2,0.6-0.24 c0.2-0.04,0.39-0.03,0.57,0.01c0.18,0.04,0.35,0.12,0.5,0.23C76.1,21.64,76.23,21.79,76.34,21.97z M74.25,19.02l0.39,0.51L72.71,21 l0.72,0.94l-0.4,0.31l-1.11-1.44L74.25,19.02z M72.73,17.13l1.23,1.46l-0.38,0.32l-0.82-0.97l-0.51,0.43l0.74,0.88l-0.37,0.31 l-0.74-0.88l-0.6,0.51l0.83,0.98l-0.38,0.32l-1.23-1.47L72.73,17.13z M71.04,15.27l-0.77,1.38c-0.03,0.05-0.06,0.1-0.09,0.16 c-0.04,0.06-0.07,0.13-0.11,0.19c-0.04,0.07-0.08,0.13-0.12,0.2c-0.04,0.07-0.08,0.12-0.11,0.17l0.01,0.01 c0.1-0.06,0.23-0.13,0.37-0.2c0.15-0.07,0.28-0.13,0.4-0.19l1.43-0.65l0.45,0.48l-2.86,1.23l-0.47-0.51l1.43-2.77L71.04,15.27z M68.91,13.25l1.42,1.27l-0.33,0.37l-0.95-0.85l-0.45,0.5l0.86,0.76l-0.33,0.36l-0.86-0.76l-0.52,0.59l0.96,0.85l-0.33,0.37 l-1.43-1.28L68.91,13.25z M65.51,13.58l0.17,0.14c0.1,0.08,0.21,0.15,0.33,0.2c0.12,0.05,0.23,0.08,0.36,0.07 c0.12,0,0.25-0.04,0.37-0.11c0.13-0.07,0.25-0.18,0.38-0.34c0.18-0.23,0.26-0.46,0.23-0.68c-0.03-0.23-0.16-0.43-0.38-0.61 l-0.24-0.19L65.51,13.58z M67.34,11.93c0.18,0.14,0.32,0.29,0.43,0.46c0.11,0.16,0.18,0.33,0.21,0.51 c0.03,0.18,0.02,0.35-0.04,0.54c-0.05,0.18-0.15,0.36-0.3,0.54c-0.17,0.21-0.34,0.36-0.53,0.45c-0.19,0.09-0.38,0.14-0.57,0.15 c-0.19,0-0.39-0.03-0.58-0.11c-0.19-0.08-0.38-0.19-0.55-0.33l-0.7-0.56l1.84-2.28L67.34,11.93z M62.86,8.77l0.48,0.32l-0.01,1.85 c0,0.13-0.01,0.25-0.01,0.36c-0.01,0.12-0.02,0.2-0.03,0.26l0.01,0.01c0.1-0.18,0.2-0.35,0.31-0.52c0.11-0.17,0.22-0.34,0.34-0.51 l0.49-0.73l0.49,0.33l-1.62,2.44l-0.48-0.32l0-1.71c0-0.07,0-0.15,0.01-0.23c0-0.08,0.01-0.15,0.02-0.22 c0.01-0.07,0.01-0.13,0.02-0.19c0.01-0.06,0.01-0.1,0.02-0.14l-0.01-0.01c-0.11,0.19-0.21,0.36-0.32,0.53 c-0.11,0.17-0.22,0.33-0.33,0.5l-0.49,0.74l-0.5-0.33L62.86,8.77z M59.59,8.69c-0.08,0.15-0.13,0.3-0.16,0.43 c-0.02,0.13-0.02,0.25,0,0.36c0.02,0.11,0.07,0.2,0.13,0.29c0.06,0.08,0.14,0.15,0.24,0.2c0.09,0.05,0.19,0.08,0.29,0.08 c0.1,0.01,0.2-0.01,0.31-0.05c0.1-0.04,0.2-0.11,0.29-0.21c0.1-0.1,0.18-0.22,0.27-0.37c0.08-0.16,0.14-0.31,0.16-0.44 c0.02-0.13,0.02-0.26,0-0.37c-0.02-0.11-0.07-0.2-0.13-0.28c-0.06-0.08-0.15-0.15-0.24-0.2c-0.1-0.05-0.2-0.08-0.3-0.08 c-0.1-0.01-0.2,0.01-0.3,0.06c-0.1,0.04-0.2,0.11-0.3,0.21C59.76,8.42,59.68,8.54,59.59,8.69z M61,7.72 c0.18,0.1,0.34,0.22,0.46,0.36c0.12,0.14,0.21,0.3,0.26,0.47c0.05,0.17,0.07,0.36,0.04,0.56c-0.02,0.2-0.09,0.41-0.21,0.62 c-0.11,0.21-0.24,0.38-0.39,0.51c-0.15,0.13-0.32,0.22-0.49,0.28c-0.18,0.05-0.36,0.07-0.55,0.05c-0.19-0.02-0.38-0.08-0.56-0.18 c-0.18-0.1-0.34-0.22-0.46-0.36c-0.13-0.14-0.21-0.3-0.27-0.47C58.78,9.39,58.77,9.2,58.79,9c0.02-0.2,0.09-0.41,0.2-0.62 c0.11-0.21,0.24-0.38,0.4-0.51c0.15-0.13,0.32-0.22,0.5-0.28c0.18-0.06,0.36-0.07,0.55-0.05C60.63,7.56,60.82,7.62,61,7.72z M56.45,5.71l0.14,1.29l1.02-0.81l0.64,0.26l-1.6,1.2l-0.46,1.12L55.6,8.54l0.46-1.12l-0.27-1.97L56.45,5.71z M55.42,5.33 l-0.14,0.48l-0.79-0.24l-0.7,2.33l-0.61-0.18l0.7-2.33l-0.78-0.23l0.14-0.48L55.42,5.33z M52.84,4.57l-0.7,2.85l-0.62-0.15 l0.7-2.85L52.84,4.57z M49.95,5.3l0.25,0.05c0.16,0.03,0.31,0.02,0.42-0.02c0.12-0.05,0.19-0.15,0.22-0.3 c0.03-0.14,0.01-0.25-0.06-0.34c-0.07-0.09-0.18-0.15-0.35-0.18l-0.32-0.06L49.95,5.3z M49.59,3.84l1.09,0.21 c0.16,0.03,0.3,0.08,0.41,0.15c0.11,0.07,0.2,0.16,0.27,0.25c0.07,0.1,0.11,0.2,0.13,0.32c0.02,0.12,0.02,0.24-0.01,0.36 c-0.02,0.12-0.06,0.22-0.11,0.3c-0.05,0.08-0.11,0.15-0.18,0.21c-0.07,0.06-0.14,0.1-0.21,0.13c-0.07,0.03-0.14,0.05-0.21,0.07 l0.48,1.31l-0.72-0.14l-0.35-1.17l-0.33-0.06l-0.21,1.06l-0.62-0.12L49.59,3.84z M46.64,4.88c-0.02,0.17-0.02,0.32,0,0.46 c0.02,0.13,0.06,0.25,0.12,0.34c0.06,0.09,0.13,0.17,0.22,0.22c0.09,0.05,0.19,0.09,0.29,0.1c0.1,0.01,0.21,0.01,0.31-0.02 c0.1-0.03,0.19-0.08,0.27-0.15c0.08-0.07,0.15-0.17,0.21-0.3c0.06-0.12,0.1-0.27,0.12-0.44c0.03-0.18,0.03-0.33,0-0.47 c-0.02-0.13-0.06-0.25-0.12-0.34C48,4.19,47.92,4.12,47.83,4.07c-0.09-0.05-0.19-0.09-0.29-0.1c-0.11-0.02-0.21-0.01-0.31,0.02 c-0.1,0.03-0.19,0.08-0.27,0.16c-0.08,0.07-0.15,0.17-0.21,0.3C46.7,4.56,46.66,4.71,46.64,4.88z M47.63,3.49 c0.21,0.03,0.39,0.09,0.56,0.18c0.17,0.09,0.3,0.21,0.41,0.36c0.11,0.15,0.18,0.32,0.23,0.51c0.05,0.2,0.05,0.42,0.02,0.66 c-0.03,0.23-0.1,0.44-0.2,0.61c-0.1,0.17-0.22,0.32-0.37,0.43c-0.15,0.11-0.31,0.19-0.5,0.23c-0.19,0.04-0.38,0.05-0.59,0.02 c-0.21-0.03-0.39-0.09-0.56-0.18c-0.17-0.09-0.3-0.21-0.41-0.35c-0.11-0.15-0.19-0.32-0.23-0.51c-0.05-0.2-0.05-0.41-0.02-0.65 c0.03-0.23,0.1-0.44,0.2-0.61c0.1-0.18,0.22-0.32,0.37-0.43c0.15-0.11,0.31-0.19,0.5-0.23C47.22,3.47,47.42,3.46,47.63,3.49z M42.97,6.13l0.12-2.93l0.64,0.03l-0.05,1.16l1.11,0.04l0.05-1.16l0.64,0.03l-0.12,2.93L44.72,6.2l0.05-1.26l-1.11-0.05l-0.05,1.26 L42.97,6.13z M42.68,3.2l0.01,0.5l-0.83,0.01l0.03,2.43l-0.64,0.01l-0.03-2.43l-0.81,0.01l-0.01-0.5L42.68,3.2z M37.43,3.52 l0.63-0.07l0.19,1.74c0.03,0.24,0.1,0.42,0.21,0.53c0.11,0.11,0.27,0.16,0.47,0.14c0.2-0.02,0.34-0.1,0.41-0.24 c0.08-0.14,0.1-0.3,0.08-0.51l-0.2-1.8l0.63-0.07L40.05,5c0.05,0.41-0.02,0.72-0.2,0.94c-0.18,0.22-0.47,0.36-0.87,0.4 c-0.38,0.04-0.69-0.02-0.94-0.2c-0.24-0.18-0.39-0.47-0.43-0.9L37.43,3.52z M35.3,3.84l0.65-0.11l1.55,2.72l-0.67,0.11L36.5,5.93 L35.47,6.1l-0.12,0.7L34.7,6.91L35.3,3.84z M35.53,5.61l0.73-0.12l-0.2-0.36c-0.06-0.11-0.12-0.23-0.18-0.34 c-0.06-0.11-0.11-0.23-0.17-0.35l-0.01,0c-0.01,0.12-0.03,0.25-0.05,0.37c-0.02,0.13-0.04,0.26-0.06,0.39L35.53,5.61z M31.05,4.84 l0.62-0.17l0.63,2.35l1.14-0.31l0.13,0.49l-1.76,0.47L31.05,4.84z M28.87,5.57l0.62-0.23l2.05,2.36l-0.63,0.24l-0.45-0.55 l-0.98,0.37l0.02,0.71L28.88,8.7L28.87,5.57z M29.45,7.26L30.15,7l-0.26-0.32c-0.08-0.1-0.16-0.2-0.24-0.3 c-0.08-0.1-0.15-0.2-0.23-0.31l-0.01,0c0.01,0.12,0.02,0.25,0.02,0.38c0.01,0.13,0.01,0.26,0.01,0.39L29.45,7.26z M27.95,5.89 l0.2,0.46l-0.76,0.33l0.97,2.23l-0.58,0.25l-0.97-2.23l-0.74,0.32l-0.2-0.46L27.95,5.89z M23.28,8.06L23.8,7.8l1.59,0.94 c0.11,0.06,0.21,0.13,0.31,0.19c0.1,0.07,0.17,0.12,0.21,0.16l0.01,0c-0.11-0.17-0.2-0.35-0.29-0.53 c-0.09-0.18-0.18-0.36-0.27-0.54l-0.39-0.79l0.53-0.26L26.8,9.6l-0.52,0.26L24.8,8.99c-0.06-0.04-0.13-0.08-0.19-0.12 c-0.06-0.04-0.13-0.08-0.18-0.12c-0.06-0.04-0.11-0.08-0.16-0.11c-0.05-0.03-0.08-0.06-0.11-0.09l-0.01,0 c0.11,0.19,0.21,0.37,0.3,0.54c0.09,0.18,0.18,0.36,0.27,0.54l0.39,0.8l-0.53,0.26L23.28,8.06z M21.07,9.41l1.62-1.01l0.26,0.42 l-1.08,0.67l0.35,0.57l0.98-0.61l0.26,0.42l-0.98,0.61l0.41,0.67l1.09-0.68l0.26,0.42l-1.63,1.01L21.07,9.41z M17.99,11.5 l0.66-0.46l1.1,0.86c0.05,0.04,0.1,0.08,0.16,0.12c0.06,0.04,0.11,0.09,0.16,0.14c0.05,0.05,0.11,0.09,0.16,0.14 c0.05,0.04,0.09,0.09,0.13,0.13l0.02-0.01c-0.02-0.05-0.04-0.1-0.07-0.16c-0.03-0.06-0.05-0.13-0.08-0.2 c-0.03-0.07-0.05-0.14-0.07-0.2c-0.02-0.07-0.04-0.13-0.06-0.18l-0.42-1.33l0.66-0.46l1.84,2.29l-0.49,0.34 c-0.2-0.26-0.4-0.51-0.6-0.76c-0.2-0.25-0.39-0.52-0.59-0.78l-0.22-0.31l-0.01,0.01c0.06,0.16,0.13,0.34,0.19,0.52 c0.07,0.18,0.12,0.34,0.16,0.48l0.4,1.31l-0.41,0.28l-1.09-0.84c-0.14-0.11-0.28-0.23-0.42-0.35c-0.14-0.13-0.27-0.24-0.37-0.34 l-0.01,0.01c0.06,0.09,0.13,0.19,0.2,0.29c0.07,0.1,0.13,0.21,0.2,0.31c0.06,0.1,0.13,0.2,0.19,0.3c0.06,0.1,0.12,0.19,0.17,0.27 l0.48,0.8l-0.49,0.34L17.99,11.5z M15.35,13.76l0.44-0.37l1.77,0.53c0.12,0.04,0.23,0.08,0.34,0.12c0.11,0.04,0.19,0.07,0.25,0.1 l0.01-0.01c-0.14-0.14-0.28-0.29-0.41-0.44c-0.13-0.15-0.26-0.31-0.39-0.46l-0.57-0.67l0.45-0.38l1.89,2.24l-0.44,0.37l-1.64-0.48 c-0.07-0.02-0.14-0.05-0.22-0.07c-0.07-0.03-0.14-0.05-0.21-0.08c-0.07-0.03-0.13-0.05-0.18-0.07c-0.05-0.02-0.1-0.04-0.13-0.06 l-0.01,0.01c0.15,0.15,0.29,0.31,0.42,0.46c0.13,0.15,0.26,0.3,0.39,0.46l0.57,0.68L17.24,16L15.35,13.76z M14.78,16.28l0.18-0.18 c0.12-0.12,0.19-0.24,0.22-0.37c0.03-0.12-0.02-0.24-0.13-0.35c-0.1-0.1-0.21-0.14-0.32-0.14c-0.11,0.01-0.23,0.07-0.34,0.19 l-0.22,0.23L14.78,16.28z M13.36,15.78l0.78-0.79c0.12-0.12,0.23-0.2,0.36-0.26c0.12-0.06,0.24-0.09,0.36-0.09 c0.12,0,0.23,0.02,0.34,0.07c0.11,0.05,0.21,0.12,0.3,0.2c0.08,0.08,0.15,0.17,0.19,0.26c0.04,0.09,0.07,0.18,0.07,0.26 c0.01,0.09,0.01,0.17-0.01,0.25c-0.01,0.08-0.03,0.15-0.06,0.21l1.35,0.32l-0.51,0.52l-1.16-0.35l-0.24,0.24l0.77,0.76l-0.44,0.45 L13.36,15.78z M11.74,17.59l1.27-1.42l0.37,0.33l-0.85,0.95l0.5,0.45l0.77-0.86l0.36,0.33l-0.77,0.86l0.59,0.52l0.86-0.96 l0.37,0.33l-1.28,1.43L11.74,17.59z M10.13,19.7l1.5,0.49c0.05,0.02,0.11,0.04,0.18,0.06c0.07,0.02,0.14,0.05,0.21,0.08 c0.07,0.03,0.15,0.05,0.22,0.08c0.07,0.03,0.14,0.05,0.19,0.08l0.01-0.01c-0.08-0.09-0.17-0.2-0.26-0.33 c-0.1-0.13-0.18-0.25-0.26-0.35L11,18.51l0.39-0.53l1.75,2.58l-0.41,0.56l-2.99-0.87L10.13,19.7z M9.63,23.06 c0.14,0.1,0.28,0.16,0.41,0.2c0.13,0.04,0.25,0.05,0.36,0.04c0.11-0.01,0.21-0.05,0.3-0.1c0.09-0.06,0.16-0.13,0.22-0.22 c0.06-0.09,0.1-0.18,0.11-0.28c0.02-0.1,0.01-0.2-0.02-0.31c-0.03-0.1-0.09-0.21-0.18-0.31c-0.09-0.1-0.2-0.2-0.34-0.3 c-0.15-0.1-0.29-0.17-0.42-0.2c-0.13-0.04-0.25-0.05-0.36-0.04c-0.11,0.01-0.21,0.05-0.29,0.1c-0.09,0.06-0.16,0.13-0.22,0.22 c-0.06,0.09-0.1,0.19-0.11,0.29c-0.02,0.1-0.01,0.2,0.03,0.31c0.03,0.1,0.09,0.21,0.18,0.31C9.37,22.86,9.49,22.96,9.63,23.06z M8.8,21.56c0.11-0.17,0.25-0.31,0.4-0.42c0.15-0.11,0.32-0.18,0.5-0.22c0.18-0.04,0.37-0.03,0.56,0.01c0.2,0.04,0.4,0.13,0.6,0.27 c0.2,0.13,0.35,0.28,0.47,0.44c0.11,0.16,0.19,0.34,0.23,0.52c0.04,0.18,0.03,0.36-0.01,0.55c-0.04,0.19-0.12,0.37-0.23,0.54 c-0.11,0.17-0.25,0.32-0.4,0.43c-0.15,0.11-0.32,0.18-0.5,0.22c-0.18,0.03-0.36,0.03-0.56-0.01c-0.2-0.04-0.4-0.13-0.6-0.26 c-0.2-0.13-0.35-0.28-0.47-0.44c-0.12-0.17-0.19-0.34-0.23-0.52c-0.04-0.18-0.04-0.37,0-0.55C8.6,21.92,8.68,21.74,8.8,21.56z M7.26,24.18c0.09-0.16,0.18-0.3,0.27-0.41c0.09-0.11,0.19-0.21,0.29-0.28l0.32,0.32c-0.1,0.07-0.18,0.15-0.26,0.24 c-0.08,0.09-0.14,0.18-0.19,0.28c-0.06,0.11-0.1,0.23-0.12,0.35c-0.02,0.12-0.01,0.24,0.03,0.35c0.04,0.11,0.1,0.23,0.2,0.33 c0.1,0.11,0.23,0.2,0.39,0.29c0.3,0.16,0.56,0.21,0.79,0.17c0.23-0.05,0.41-0.19,0.54-0.44c0.08-0.14,0.12-0.26,0.13-0.34 l-0.6-0.32l-0.23,0.43l-0.42-0.22l0.51-0.97l1.31,0.7c-0.01,0.13-0.04,0.28-0.08,0.43c-0.05,0.16-0.12,0.33-0.21,0.51 c-0.1,0.19-0.23,0.36-0.37,0.49c-0.15,0.14-0.31,0.23-0.49,0.3c-0.18,0.06-0.37,0.08-0.57,0.07c-0.2-0.02-0.41-0.08-0.63-0.2 C7.66,26.14,7.49,26,7.36,25.84c-0.13-0.16-0.22-0.33-0.27-0.51c-0.05-0.18-0.06-0.37-0.03-0.57C7.09,24.57,7.15,24.38,7.26,24.18z M7,27.97l0.1-0.23c0.06-0.15,0.08-0.29,0.06-0.42C7.14,27.2,7.05,27.1,6.9,27.04c-0.13-0.05-0.25-0.05-0.35,0 c-0.1,0.05-0.19,0.15-0.25,0.3l-0.12,0.3L7,27.97z M5.5,28.04l0.42-1.03c0.06-0.15,0.14-0.28,0.23-0.37 c0.09-0.1,0.19-0.17,0.3-0.22c0.11-0.05,0.22-0.07,0.34-0.06c0.12,0,0.24,0.03,0.35,0.08c0.11,0.04,0.2,0.1,0.27,0.17 c0.07,0.07,0.13,0.14,0.17,0.22c0.04,0.08,0.07,0.15,0.09,0.23c0.02,0.08,0.03,0.15,0.03,0.22l1.37-0.21l-0.28,0.68l-1.21,0.11 l-0.13,0.31l1,0.41l-0.24,0.59L5.5,28.04z M4.64,30.33l0.64-1.8l0.46,0.16l-0.42,1.2l0.63,0.22l0.38-1.08l0.46,0.16l-0.38,1.08 l0.74,0.26l0.43-1.21l0.46,0.16L7.4,31.31L4.64,30.33z M4.51,30.71l0.48,0.14l-0.24,0.79l2.33,0.7L6.9,32.95l-2.33-0.7l-0.23,0.78 l-0.48-0.14L4.51,30.71z M3.22,35.84l0.11-0.57l1.71-0.7c0.12-0.05,0.23-0.09,0.34-0.13c0.11-0.04,0.19-0.06,0.25-0.08l0-0.01 c-0.2-0.02-0.4-0.05-0.6-0.09c-0.2-0.04-0.39-0.08-0.6-0.12l-0.86-0.17l0.11-0.58l2.88,0.56l-0.11,0.57L4.88,35.2 c-0.07,0.03-0.14,0.05-0.21,0.08c-0.07,0.03-0.14,0.05-0.21,0.07c-0.07,0.02-0.13,0.04-0.18,0.06c-0.06,0.02-0.1,0.03-0.14,0.03 l0,0.01c0.21,0.03,0.42,0.06,0.61,0.09c0.19,0.04,0.39,0.07,0.59,0.11l0.87,0.17L6.09,36.4L3.22,35.84z M3.09,36.52l2.9,0.41 L5.9,37.56L3,37.15L3.09,36.52z M4.41,40.78l0.63,1.96l2.06,0l-1.67,1.21l0.64,1.95l-1.66-1.21l-1.66,1.21l0.64-1.95l-1.67-1.21 l2.06,0L4.41,40.78z M39.55,25.24l0.04-5.14l-3.72-0.01l-0.02,1.76l1.73,0.01l0.04,2.06c-1.26,0.2-2.35,0.19-2.98-0.61 c-1.16-1.47-1.28-6.34,2.68-5.91c0.71,0.08,1.08,0.36,1.6,0.43l0.65-1.58c-1.47-1.1-7.71-1.55-7.7,4.38 c0.01,2.2,0.65,3.77,2.01,4.61C35.16,26.04,38.16,25.97,39.55,25.24z M40.88,25.63l2.1,0.06l0.73-2.36l3.42-0.01l0.67,2.34 l2.14,0.02l-3.3-9.96l-2.48-0.03L40.88,25.63z M45.44,17.43l1.17,4.1l-2.37-0.03L45.44,17.43z M51.34,25.66 c4.36,0.46,7.83-0.48,7.82-4.92c-0.01-4.66-3.35-5.39-7.8-4.99L51.34,25.66z M53.38,17.47c2.6-0.06,3.72,0.6,3.68,3.27 c-0.03,2.45-1.2,3.31-3.72,3.17L53.38,17.47z M27.92,25.66l2.02,0.04l0.01-9.95l-2.01-0.01L27.92,25.66z M39.59,8.73 c-4.92,0.46-9.38,1.84-13.09,3.87C14.56,19.15,7.81,31.34,8.75,45.36c0.52,7.72,4.1,15.03,9.16,20.38c2.2,2.32,4.26,4.01,7.02,5.72 c5.93,3.67,13.14,5.34,20.51,4.77C62.86,74.88,77.99,59,76.21,39.63c-0.86-9.38-4.9-16.71-11.3-22.52 C59.37,12.08,50.14,7.74,39.59,8.73z M9,44.51c-0.35-5.18,0.63-10.11,2.29-14.38c1.32-3.39,3.21-6.49,5.46-9.19 c1.15-1.37,1.77-1.93,3.08-3.23c1.85-1.82,5.2-3.99,7.46-5.16c8.31-4.3,18.68-4.82,27.45-1.32c21.71,8.64,28.37,36.13,12.53,53.86 c-4.61,5.17-12.5,10.25-22.69,10.89c-9.7,0.61-18.04-2.82-24.76-8.72c-2.84-2.49-5.47-6.19-7.24-9.56 C10.6,53.91,9.34,49.41,9,44.51z M0.13,45.15C1.17,57,5.61,66.11,13.89,73.84c6.57,6.14,18.25,12.08,31.3,11.03 c8.74-0.7,16.67-3.64,23.14-8.7c1.18-0.92,3.26-2.69,4.27-3.75c1.5-1.57,2.28-2.4,3.68-4.24c9.06-11.88,11.09-27.15,5.64-41.44 c-0.5-1.31-1.07-2.49-1.63-3.61c-2-3.95-4.76-7.71-7.85-10.77c-1.35-1.34-2.69-2.49-4.23-3.69c-7.77-6.03-18.13-9.24-28.31-8.6 C26.91,0.9,16.95,7.36,11.16,13.83c-3.16,3.53-6.02,7.6-8.15,13.04C0.95,32.12-0.44,38.72,0.13,45.15z M84.5,45.36 c-0.99,11.53-5.69,21.05-13.71,28.37c-1.76,1.61-3.77,3.06-5.98,4.51c-2.02,1.33-4.57,2.56-7.05,3.55 c-5.15,2.06-11.71,3.24-18.09,2.76c-11.61-0.87-20.86-5.71-28.4-13.75c-7.32-7.8-11.72-19.74-10.8-31.27 c0.51-6.35,2.05-11.44,4.58-16.39c1.76-3.45,5.01-8,7.77-10.62c1.64-1.56,2.45-2.22,4.25-3.66c2.73-2.19,6.81-4.33,10.16-5.67 c14.29-5.73,30.77-2.7,42.4,7.07c0.92,0.77,3.35,3.05,4.1,3.92c3.18,3.7,5.86,7.54,8.03,13.06C83.82,32.46,85.05,38.98,84.5,45.36z M14.53,35.68c-0.02-1.32-0.04-4-0.63-4.97l-0.64,1.71c-0.4,1.59-0.61,4.85,0.86,5.63l-0.27,4.97c-0.56-1.19-0.92-3.95-2.25-4.68 c-0.09,2.11,0.14,4.3,1.25,6.03c0.58,0.92,0.53,0.57,1.32,1.13c0.13,0.89,0.23,1.66,0.39,2.52c0.13,0.69,0.45,1.69,0.49,2.32 c-0.62-1.29-2.23-3.64-3.43-4.05c0.23,2.14,1.8,5.97,4.17,6.29c0.76,1.96,1.57,3.38,2.03,4.53c-0.86-0.91-2.68-2.89-4.42-3.16 c0.4,1.56,2.91,5.27,5.53,4.98c0.4,0.42,0.92,1.25,1.29,1.73c0.44,0.58,1.05,1.15,1.42,1.73c-1.73-0.57-2.48-1.65-4.86-1.53 c0.6,1.32,2.87,2.91,4.39,3.35c1.33,0.39,1.4,0.02,2.35-0.12c0.57,0.46,1.13,0.88,1.78,1.33c0.63,0.43,1.28,0.79,1.93,1.22 c-1.54-0.07-4.1-0.97-5.41,0.02c0.77,0.86,3.57,1.87,5.13,1.87c1.32,0,1.53-0.24,2.25-0.88c0.91,0.19,3.56,1.49,4.43,1.4 c-1.47,0.21-4.59,0.32-5.47,1.67c0.8,0.47,3.29,0.64,4.35,0.52c0.69-0.08,1.35-0.26,1.91-0.53c0.91-0.44,0.77-0.59,1.3-1.24 c1.42,0.1,5.17,0.9,6.14,1.57l-3.62,2.42c-0.44,0.36-0.2,0.15-0.1,0.47l0.39-0.18c0.83-0.62,3.14-2.36,3.94-2.4 c0.42-0.02,2.05,1.01,2.4,1.24c0.4,0.26,0.68,0.47,1.07,0.75c0.29,0.21,0.75,0.68,1.03,0.58c0.15-0.37-0.32-0.55-0.69-0.82 l-2.06-1.37c-0.23-0.13-0.33-0.18-0.56-0.3l-0.55-0.41c1.06-0.62,4.73-1.48,6.2-1.58c0.58,1.11,1.58,1.56,3.18,1.76 c1.06,0.13,3.51-0.02,4.37-0.5c-0.86-1.3-4-1.5-5.47-1.66c1.03-0.07,3.37-1.05,4.34-1.42c0.53,0.29,0.56,0.69,1.61,0.84 c1.82,0.26,4.65-0.65,5.85-1.83c-1.21-0.93-4.03-0.12-5.41-0.01c0.55-0.4,1.28-0.79,1.88-1.19c0.64-0.43,1.24-0.99,1.84-1.38 c0.9,0.21,0.89,0.5,2.11,0.19c1.31-0.34,2.35-1.07,3.3-1.94c0.45-0.41,1.09-0.84,1.28-1.48c-0.97-0.02-1.86,0.2-2.68,0.51 c-0.75,0.29-1.49,0.8-2.12,1.02c0.24-0.46,0.98-1.17,1.36-1.67c0.33-0.44,1.03-1.28,1.22-1.77c1.89,0.13,2.63-0.76,3.56-1.68 c0.56-0.56,1.81-2.31,2.04-3.27c-1.42,0.24-2.48,1.24-3.41,2.11c-0.29,0.27-0.64,0.71-0.95,0.94c0.28-0.69,0.73-1.42,1.05-2.12 c0.69-1.53,0.52-2.12,1.43-2.42c1.1-0.36,1.76-1.28,2.32-2.29c0.47-0.83,1.38-2.86,1.35-3.94c-0.69,0.39-1.39,1.08-1.88,1.7 c-0.47,0.59-1.03,1.77-1.5,2.23c0.07-0.68,0.35-1.53,0.49-2.28c0.15-0.83,0.24-1.59,0.4-2.44c0.73-0.42,0.73-0.29,1.17-0.92 c1.24-1.75,1.45-4.11,1.35-6.26c-0.57,0.44-1.09,1.45-1.42,2.23c-0.2,0.47-0.87,2.36-0.88,2.74c-0.08-0.76-0.02-1.72-0.03-2.51 c-0.02-0.92-0.12-1.68-0.19-2.57c0.39-0.6,0.56-0.46,0.86-1.33c0.61-1.76,0.3-4.68-0.6-6.15l-0.58,2.4 c-0.1,0.95-0.01,1.98-0.12,2.9c-0.12-0.87-0.64-1.87-0.75-2.66c-0.18-1.33-0.21-1.69-0.76-2.79c-0.65-1.29-2.23-3.14-3.61-3.51 c0.37,1.05,3.21,5.29,3.99,6.23c0.36,0.44,0.8,1.84,0.85,2.55c-0.7-1.1-1.65-2.58-3.4-2.65c0.36,1.08,2.13,3.88,3.17,4.62 c0.35,0.25,0.52,0.18,0.71,0.5c0.27,0.89,0.32,3.85,0.11,4.86c0.29-1.1-1.37-3.82-2.5-4.13c0.18,2.05,1.02,5.3,2.33,6.33 c0.05,0.94-0.55,4.05-0.93,4.7c-0.07-1.32-0.27-4.06-1.65-4.62c-0.22,1.52-0.14,5.21,0.51,6.39c0.53,0.96,0.53,0.61-0.29,2.48 c-0.4,0.91-0.76,1.57-1.21,2.36c0.16-1.46,0.54-4.01-0.7-4.99c-0.46,1.28-0.9,3.73-0.9,5.23c0,2,0.95,1.16-0.31,2.85 c-0.42,0.56-1.33,1.84-1.9,2.14c0.32-1.3,0.89-2.14,0.64-3.69c-0.06-0.37-0.14-0.72-0.36-1.02c-0.01-0.01-0.03-0.04-0.05-0.05 c-0.52,0.72-1.07,2.09-1.43,2.94c-0.55,1.29-0.86,2.16-0.65,3.75c-0.38,0.16-1.21,0.9-1.66,1.21c-0.5,0.34-1.25,0.88-1.85,1.08 c0.22-0.42,0.45-0.56,0.71-0.94c0.76-1.09,1.18-2.4,0.98-3.83c-0.44,0.09-2.04,2.14-2.32,2.49c-0.73,0.94-1.48,1.91-1.56,3.47 c-1.21,0.38-2.55,1.14-4,1.26c0.64-0.61,1.28-0.89,1.88-1.68c0.52-0.67,0.95-1.55,0.97-2.65c-1.31,0.45-3.37,2.17-4.32,3.15 c-0.63,0.64-0.54,0.9-0.95,1.63c-0.49,0.21-2.7,0.51-3.45,0.71c-0.61,0.16-3.07,1.04-3.22,1.06c-0.17,0.01-2.62-0.87-3.21-1.03 c-1.19-0.32-2.32-0.47-3.59-0.69c-0.54-1.37-1-1.9-2.19-2.83c-0.73-0.57-2.2-1.65-3.05-2.02c-0.04,1.05,0.47,1.99,0.95,2.63 c0.28,0.38,0.53,0.64,0.88,0.94c0.34,0.3,0.73,0.52,1.04,0.79c-1.25-0.11-2.96-0.87-4.04-1.3c-0.01-1.48-0.82-2.5-1.52-3.41 c-0.38-0.5-1.87-2.35-2.33-2.56c-0.32,2.68,0.76,3.13,1.71,4.83c-0.97-0.27-2.82-1.84-3.55-2.36c0.32-1.82-0.89-4.66-1.85-6.3 l-0.32-0.39c-0.28,0.82-0.48,1.51-0.35,2.57c0.12,0.99,0.47,1.47,0.71,2.31c-0.4-0.21-2.56-2.77-2.63-3.24 c-0.02-0.13,0.85-1.23-0.09-5.43c-0.1-0.46-0.18-1.26-0.52-1.65c-1.06,2.08-0.9,2.39-0.64,4.94c-0.31-0.4-1.72-3.3-1.84-3.92 c-0.05-0.24,0.6-1.2,0.76-2c0.34-1.69,0.2-3.56,0.14-5.29c-1.56,1.29-1.4,2.64-1.67,4.97c-0.05-0.82-1.2-4.38-0.9-4.98 c0.87-0.77,1.16-1.54,1.55-2.84c0.26-0.85,0.76-2.68,0.77-3.54c-1.3,0.63-2.54,2.75-2.58,4.2c-0.12-1.47-0.07-3.65,0.2-5.04 c1.42-0.41,3.34-3.59,3.87-4.95c-0.9,0.02-1.57,0.49-2.05,0.89c-0.74,0.62-0.78,1.09-1.34,1.66c0.22-2.06,1.25-2.81,2.28-4.47 c0.57-0.93,2.3-3.38,2.55-4.23c-2.18,0.61-4.14,3.72-4.35,5.94c-0.06,0.67-0.16,0.86-0.33,1.41 C14.87,34.79,14.81,35.32,14.53,35.68z M28.63,44.68l0.02,0.02C28.64,44.69,28.63,44.68,28.63,44.68z M53.46,50.25L53.46,50.25 L53.46,50.25z M30.73,30.94h-5.11c-0.21,0-0.37,0.17-0.37,0.37v0c0,0.21,0.17,0.37,0.37,0.37h4.46h4.29c0.21,0,0.37,0.17,0.37,0.37 v0c0,0.21-0.17,0.37-0.37,0.37h-4.76v0l-1.28,1.83c-0.18,0.24-0.27,0.34-0.34,0.63l-0.06,0.09h4.27c0.21,0,0.37,0.17,0.37,0.37v0 c0,0.21-0.17,0.37-0.37,0.37h-4.79v-0.01l-0.06,0l-1.1,1.79h-5.34c-0.21,0-0.37,0.17-0.37,0.37s0.17,0.37,0.37,0.37h5.55h4.91 c0.21,0,0.37,0.17,0.37,0.37v0c0,0.21-0.17,0.37-0.37,0.37h-4.64l-0.48,1.73c0.08,0.37,0.17,0.42,0.3,0.7l0.04,0.08l0,0.01h4.8 c0.21,0,0.37,0.17,0.37,0.37v0c0,0.21-0.17,0.37-0.37,0.37h-4.25l0.01,0.01c0.11,0.34,0.47,0.77,0.78,1.19l0.38,0.59l0.01,0.03 h-4.16c-0.21,0-0.37,0.17-0.37,0.37v0c0,0.21,0.17,0.37,0.37,0.37h4.68l0.04,0.02l0.22,0.03c0.39,0.07,0.59,0.24,1.29,0.64 c1.24,0.71,0.99,0.5,2.52,0.43c1.34-0.06,1.41-0.22,2.44-0.71c1.19-0.57,0.97-0.71,2.11-0.06c0.53,0.3,1.62,0.97,2.09,1.13 c-0.14,0.36-0.15,0.63-0.21,0.99c-0.11,0.39-0.11,0.56-0.17,0.79h4.91c0.21,0,0.37,0.17,0.37,0.37v0c0,0.21-0.17,0.37-0.37,0.37 h-4.3c0.02,0.01,0.04,0.02,0.07,0.03c0.29,0.66,0.83,0.72,1.09,1.76l-0.01-0.03h-4.41c-0.21,0-0.37,0.17-0.37,0.37v0 c0,0.21,0.17,0.37,0.37,0.37h4.61l0,0h4.94c0.21,0,0.37,0.17,0.37,0.37v0c0,0.21-0.17,0.37-0.37,0.37h-4.69l0.02,0.05 c0.14,1.03,0.68,0.86,0.07,1.78l-0.23,0.74h4.57c0.21,0,0.37,0.17,0.37,0.37v0c0,0.21-0.17,0.37-0.37,0.37h-4.68V55.3l-0.02,0.13 l0.16,1.79h-4.34c-0.2,0-0.37,0.17-0.37,0.37v0c0,0.21,0.17,0.37,0.37,0.37h4.67l0,0h5.04c0.21,0,0.37,0.17,0.37,0.37 c0,0.21-0.17,0.37-0.37,0.37h-4.35l0.01,0.01l0.22,1.78c0.1,0.32,0.21,0.55,0.34,0.74h4.74c0.21,0,0.37,0.17,0.37,0.37v0 c0,0.21-0.17,0.37-0.37,0.37h-4.17c0.03,0.49,0.56,1.23,0.71,1.78h-4.63c-0.21,0-0.37,0.17-0.37,0.37c0,0.21,0.17,0.37,0.37,0.37 h4.89c0.03,0.04,0.08,0.09,0.13,0.15c0.67,0.35,0.17,0.38,1.66,0.07c1.91-0.39,1.54-0.16,2.89-1.17c0.65-0.49,1.58-1.46,1.88-2.29 c0.25-0.68,0.16-0.92,0.59-1.45c0.32-0.4,0.74-0.62,0.8-1.21c0.26-2.57-0.27-1.56,2.13-4.1c0.55-0.58,0.39-0.65,0.25-1.57 c-0.17-1.11-0.44-2.5-0.54-3.62l0,0l0,0l0,0l0,0l0,0l0,0l0,0l0,0l-0.01,0l0,0l0,0l0,0l0,0l0,0l0,0l0,0l0,0l0,0l0,0l0,0l0,0l0,0l0,0 l0,0l0,0l0,0l0,0l0,0l0,0l0,0l0,0l0,0l0,0l0,0l0,0l0,0l0,0l0,0l0,0l0,0l0,0h0l0,0l0,0l0,0l0,0l0,0l0,0l0,0l0,0l0,0l0,0l0,0l0,0l0,0 l0,0l0,0l0,0l0,0l0,0l0,0l0,0l0,0l0,0l0,0l0,0l0,0l-0.01,0l0,0l0,0l0,0l0,0l0,0l0,0l0,0l0,0c-0.08,0.09-0.13,0.22-0.2,0.35l0,0l0,0 l0,0l0,0l0,0l0,0l0,0l0,0l0,0l0,0l0,0l0,0l0,0l0,0l0,0l0,0l0,0l0,0l0,0l0,0l0,0l0,0l0,0l0,0l0,0l0,0l0,0l0,0l0,0l0,0l0,0l0,0l0,0 l0,0l0,0l0,0l0,0l0,0.01l0,0l0,0l0,0l0,0l0,0l0,0l0,0l0,0l0,0l0,0l0,0l0,0l0,0l0,0l0,0l0,0l0,0l0,0l0,0l0,0l0,0l0,0l0,0l0,0l0,0 l0,0l-0.01,0.01l0,0l0,0l0,0l0,0l0,0.01l0,0l0,0.01l0,0l0,0.01l0,0l0,0l0,0.01l0,0.01l0,0l0,0c-0.04,0.05-0.08,0.09-0.13,0.13 l-0.01,0h0l0,0l-0.01,0c-0.01,0-0.03,0-0.04-0.01l-0.01,0l-0.01,0l-0.01,0l-0.01,0l0,0l-0.01,0l-0.01,0l0,0l-0.01,0l0,0l-0.01,0 l-0.01,0l-0.01,0l0,0l-0.01,0l-0.01,0l-0.01,0l-0.01,0l-0.01,0l-0.01,0l-0.01,0l-0.01,0l-0.01,0l-0.01,0l-0.01,0l0,0l-0.01,0 l-0.01,0l-0.01,0l0,0l-0.01,0l0,0l-0.01,0l-0.01,0l0,0l-0.01,0l-0.01,0l-0.01,0l-0.01-0.01l0,0l-0.01,0l0,0l-0.02-0.01l-0.01-0.01 l0,0l-0.01,0l-0.01-0.01l0,0l-0.01,0L53,50.08l0,0l-0.01-0.01l-0.01-0.01l0,0l-0.01-0.01l-0.01-0.01l0,0l-0.01-0.01l-0.01-0.01 l-0.01-0.01l0,0l-0.01-0.01l-0.01-0.01l0,0l-0.01-0.01l-0.01-0.01l0,0L52.91,50l0,0l0,0l-0.01-0.01l0,0l0,0l-0.01-0.01l0,0l0,0 l-0.01-0.01l0,0l0,0l-0.01-0.01c-0.1-0.1-0.16-0.22-0.22-0.31l-0.01-0.01l0,0l0,0l-0.01-0.01l0,0l0,0l0,0l0-0.01l0,0l0,0l0,0l0,0v0 l0,0l0,0l0,0l0,0l0,0l0,0l0,0l0,0l0,0l0,0l0,0l0,0l0,0l0,0l0,0l0,0l0,0l0,0l0,0l0,0l0,0l0,0l0,0l0,0l0,0l0,0v0l0,0l0,0l0,0l0,0l0,0 l0,0l0,0l0,0l0,0l0,0l0,0l0,0l0,0l0,0l0,0l0,0l0,0l0,0l0,0l0,0l0,0l0,0l0,0l0,0l0,0l0,0v0l-0.01-0.01l-0.01-0.01v0l-0.01-0.01v0 l-0.01-0.01v0l-0.01-0.01v0l-0.01-0.01l-0.01-0.01v0l-0.01-0.01v0l-0.01-0.01l-0.01-0.01v0l-0.02-0.01v0l-0.02-0.01l-0.02-0.01v0 l-0.02-0.01v0l-0.02-0.01l-0.02-0.01v0l-0.02-0.01l-0.02-0.01l-0.02-0.01l-0.02-0.01l-0.02-0.01l-0.02-0.01l-0.02-0.01l-0.02-0.01 l-0.02-0.01l-0.02-0.01l-0.02-0.01v0l-0.02-0.01l-0.02-0.01l-0.02-0.01l-0.02-0.01l-0.02-0.01l-0.02-0.01l-0.02-0.01l-0.02-0.01 l-0.02-0.01l-0.02-0.01L51.85,49l-0.02-0.01l-0.02-0.01l-0.02-0.01l-0.02-0.01l-0.02-0.01v0l-0.02-0.01l-0.02-0.01l-0.02-0.01 l-0.02-0.01l-0.02-0.01l-0.02-0.01l-0.02-0.01l-0.02-0.01v0l-0.02-0.01v0l-0.02-0.01v0l-0.02-0.01v0l-0.02-0.01v0l-0.02-0.01 l-0.02-0.01l-0.02-0.01v0l-0.02-0.01l-0.02-0.01v0l-0.02-0.01l-0.02-0.01v0l-0.02-0.01l-0.02-0.01v0l-0.01,0l-0.01,0l-0.02-0.01 l-0.01,0l-0.01,0l-0.01,0l0,0l-0.01,0l-0.01,0l-0.01,0l-0.01,0l0,0l-0.01,0l-0.01,0l-0.05-0.03l-0.01,0l0,0l0,0 c-0.1-0.05-0.2-0.1-0.29-0.14c-0.31-0.12-0.61-0.19-0.86-0.18c-0.15,0.01-0.31,0.02-0.47,0.04c-0.32,0.05-0.69,0.13-1.24,0.11 c0.11-1.11,0.23-0.97,0.68-1.61c0-0.05,0-0.1,0-0.15l-0.01-0.48c-0.01-0.15-0.03-0.23-0.06-0.3c-0.06-0.07-0.11-0.13-0.16-0.18 c-0.08-0.08-0.19-0.18-0.33-0.4l-0.16,0c-0.92,0.06-0.87,0.06-0.97-0.19l-0.04-0.05l0,0l-0.01-0.01l-0.01-0.01l0,0l-0.01-0.01 l-0.01-0.01l0,0l-0.01-0.01l-0.01-0.01l0,0l0,0l-0.01-0.01l-0.01-0.01l0,0l-0.01-0.01l-0.01-0.01l0,0l0-0.01L47.21,45l0-0.01l0,0 l-0.01-0.01l-0.01-0.01l0,0l-0.01-0.01l-0.01-0.01l0,0l0,0l-0.01-0.01l-0.01-0.01l0,0l-0.01-0.01l-0.01-0.01l0,0l-0.01-0.01 l-0.01-0.01l0-0.01l0,0l-0.01-0.01l-0.01-0.01l0,0l-0.02-0.02l0-0.01l-0.01-0.01l-0.01-0.01l0,0l-0.01-0.01l-0.01-0.02l-0.01-0.01 l0,0l-0.03-0.04l0,0L47,44.72l0-0.01l0,0l-0.02-0.03l-0.01-0.01l0,0l0-0.01l-0.01-0.01l-0.01-0.01l0,0l-0.01-0.01l-0.01-0.01l0,0 l-0.01-0.01l-0.01-0.01l0,0l0,0c-0.05-0.02-0.08,0-0.21-0.18c-0.07-0.09-0.09-0.15-0.11-0.21l0,0l0-0.01l0-0.01l0,0l-0.01-0.01 l-0.01-0.01l-0.01-0.01l0,0l0-0.01l-0.01-0.01l0,0l0-0.01l0-0.01l0,0l0,0l-0.01-0.01l0-0.01l0,0l0,0l0-0.01l-0.01-0.01l0,0l0-0.01 l0-0.01l0,0l0,0l0-0.01l0,0l0,0l0,0l0,0l0,0l0,0l0,0l0,0l0,0l-0.01-0.01l0,0l0,0l0,0l0,0l0,0l0,0l0,0l0,0l0,0l0,0l-0.01-0.01l0,0 l0,0l0,0l0,0l0,0l0,0l0,0l0,0l0,0l0,0l0,0l0,0l0,0l-0.01,0l0,0l0,0l0,0l0,0l0,0l-0.01-0.01l0,0l0,0l0,0l0,0l0,0l0,0l0,0l0,0l0,0h0 c-0.01,0-0.02,0-0.08-0.06l0,0l0,0l-0.02-0.01l0,0l-0.01-0.01l0,0l-0.01-0.01l-0.01,0l-0.01-0.01l-0.02-0.01l-0.01-0.01l-0.01-0.01 l-0.01-0.01l-0.01-0.01l-0.01-0.01l-0.01-0.01l-0.01-0.01l-0.02-0.02l-0.01-0.01l0,0l-0.01-0.01l-0.01-0.01l0,0l0,0l-0.01-0.02l0,0 l-0.01-0.01l0,0l-0.01-0.01l0,0l-0.01-0.01h0l-0.01-0.01l0,0l-0.01-0.01l-0.01-0.01l0,0l0-0.01l0,0l0,0l0,0l0,0l0,0l0,0l0,0l0,0 l0,0l0,0l0,0l0,0l0,0l0,0l0,0l0,0l0,0l0,0l0,0l0,0l0,0l0,0l0,0l0-0.01l0,0l0-0.01l0,0l0-0.01l0,0l-0.01-0.01l0,0l-0.01-0.01l0,0 l-0.01-0.01l0,0l0,0l-0.01-0.01l-0.01-0.01l0,0l-0.01-0.01l0,0l-0.01-0.01l0,0l-0.01-0.01l0,0l-0.01-0.01l0,0l-0.01-0.01l0,0 l-0.01-0.01l0,0l-0.01-0.01l-0.01-0.01l-0.01-0.01l-0.01-0.01l-0.01-0.01l-0.01-0.01l-0.01-0.01l-0.01-0.01l-0.01-0.01l-0.01-0.01 l-0.01-0.01l-0.01-0.01l-0.01,0l-0.01-0.01l0,0l-0.01-0.01l0,0l-0.02-0.01l0,0l-0.02-0.01l0,0l-0.02-0.02l0,0l-0.02-0.02l0,0 l-0.02-0.02l0,0l0,0l0,0l0,0l0,0l0,0l0,0l0,0l0,0l0,0l0,0l0,0l0,0l0,0l0,0l0,0l0,0l0,0l0,0l0,0l0,0l0,0l0,0l0,0l0,0l0,0l0,0l0,0 l0,0l0,0l0,0l0,0l0,0l0,0l0,0l0,0l0,0l0,0l0,0l0,0l0,0l0,0l0,0l0,0l0,0l0,0l0,0l0,0l0,0l0,0l0,0l0,0l-0.01-0.01l0,0l0,0l0,0l0,0 l0,0l0,0l0,0l0,0l0,0l0,0l0,0l0,0l0,0l0,0v0l0,0l0,0l0,0l0,0c-0.08-0.05-0.16-0.09-0.21-0.11c-0.01-0.21-0.09-0.56-0.21-0.92l0,0 l0-0.01l0-0.01l0-0.01l0-0.01l0,0l0-0.01l0-0.01l0-0.01l0-0.01l0-0.01l0-0.01l0-0.01l0-0.01l0-0.01l0,0l0-0.01l-0.01-0.02l0-0.01 l0-0.01l0-0.01l0-0.01l0,0l0-0.01l0-0.01l0-0.01l0-0.01l0-0.01l0-0.01l0-0.01l0-0.01l0-0.01l0,0l0-0.01l0-0.01l0-0.01l0-0.01 l0-0.01l0-0.01l0-0.01l0-0.01l0,0l0-0.01l0-0.01l0-0.01l0-0.01l-0.01-0.02l0-0.01l0-0.01l0-0.01l0,0l0-0.01l0-0.01l0-0.01 l-0.02-0.05l0,0l0-0.01l0-0.01l0-0.01l0-0.01l-0.01-0.03l0-0.01l0-0.01l-0.01-0.01l-0.01-0.01l0-0.01l0,0l-0.01-0.01l-0.01-0.01 l0-0.01l0,0l-0.01-0.01l-0.01-0.01l0,0l0-0.01l-0.01-0.01l-0.01-0.01l0,0l0-0.01l0-0.01l-0.01-0.01l0,0l0-0.01l0-0.01l0-0.01l0,0 l0-0.01l0-0.01l0-0.01l0,0l0-0.01l0-0.01l0-0.01l0,0l0-0.01l0-0.01l0,0l0-0.01l0-0.01l0-0.01l0,0l0-0.01l0-0.01l0-0.01l0,0l0-0.01 l0-0.01l0-0.01l0,0l0-0.01l0-0.01l0-0.01l0,0l0-0.01l0-0.01l0,0l0,0l0-0.01l0-0.01l0,0l0-0.01l0-0.01l0-0.01l0,0l0-0.01l0-0.01 l0-0.01l0,0l0-0.01l0-0.01l0-0.01l0,0l0-0.01l0-0.01l0-0.01l0-0.01l0-0.01l0,0l0-0.01l0-0.01l0-0.01l0,0l0-0.01l0-0.01l0-0.01l0,0 l0-0.01l0-0.01c-0.04-0.05-0.07-0.08-0.1-0.11c0.01-0.09,0.03-0.17,0.04-0.25v0v0l0,0l0-0.01l0-0.01l0-0.01l0-0.01l0-0.01l0-0.01 l0-0.01v0l0-0.01l0-0.01l0-0.01l0-0.01l0,0l0-0.01l0-0.01l0-0.01l0-0.01l0,0l0-0.01l0-0.01l0-0.01l0,0l0-0.01l0-0.01l0-0.01l0-0.01 l0,0l0-0.01l0-0.01l0-0.01l0-0.01l0-0.01l0-0.01l0-0.01l0-0.01l0,0l0-0.01l0-0.01l0-0.01l0,0l0-0.01l0-0.01l0-0.01l0-0.01l0-0.01 l0-0.01l0-0.01l0,0l0,0l0-0.01l0-0.01l0-0.01l0-0.01l0-0.01l0-0.01l0-0.01l0-0.01l0-0.01l0-0.01l0-0.01l0,0l0-0.01l0-0.01l0-0.01 l0-0.01l0-0.01l0-0.01l0-0.01l0-0.01l0,0l0-0.01l0,0c0.09-0.3,0.2-0.48,0.32-0.61l0,0l0,0l0-0.01l0,0l0,0 c0.01-0.01,0.02-0.02,0.02-0.03l0,0l0,0l0.01-0.01l0,0l0,0l0,0l0,0l0,0l0.01-0.01l0,0l0,0l0,0l0,0l0.02-0.01l0,0l0,0l0,0l0,0l0,0 l0,0l0,0l0,0l0,0l0,0l0,0l0,0l0,0l0,0l0,0l0,0l0,0l0,0l0,0l0,0l0,0l0,0l0,0l0,0l0,0l0,0l0,0l0,0l0,0l0,0l0,0l0,0l0,0l0,0l0,0l0,0 l0,0l0,0l0,0l0,0l0,0l0,0l0,0l0,0l0,0l0,0l0,0l0,0l0,0l0,0l0,0l0,0l0,0l0,0l0,0l0,0l0,0l0,0l0,0c0.11-0.06,0.23-0.1,0.33-0.17 l0.03-2.01l0-0.16l0.28-0.13l0.18-0.09c0.02-0.75-0.1-0.92,0.4-0.95l0,0v0l0,0c0.28-0.01,0.75,0.02,1.55,0.02 c0.99,0,1.72-0.06,2.63,0.05l0.03,0l0,0l0.02,0l0,0l0,0l0,0l0.01,0l0,0l0,0l0,0l0,0l0,0l0,0l0,0l0,0l0,0l0,0l0,0l0,0l0,0l0,0l0,0 l0,0l0,0l0,0l0,0l0,0l0,0l0,0l0,0l0,0l0,0l0,0l0,0l0,0l0,0l0,0l0,0l0,0l0,0l0,0l0,0l0,0l0,0l0,0l0,0l0,0l0,0l0,0l0,0l0,0l0,0 l0.01,0l0,0l0,0l0,0l0,0l0,0l0,0l0,0l0,0c0.27-0.21,0.48-0.51,0.87-0.59l-1.67-3.84c-2.06-0.03-0.93,0.35-3.25,0.05 c-0.85-0.11-2.3-0.41-3.09-0.35l-0.06,0.8c-0.84,0.6-0.67,0.39-2.85-0.46c-1.76-0.68-1.34-0.71-2.31-1.85 c-0.41-0.47-1-0.3-1.72-0.28c-0.56,0.01-1.45-0.07-1.95,0.07c-0.44,0.13-0.92,0.56-1.38,0.66c-0.65,0.14-1.45-0.03-2.03,0.1 c-0.01,0.02-0.02,0.04-0.03,0.07l-0.36,0.75C30.81,30.88,30.78,30.9,30.73,30.94z M80.41,40.79l0.63,1.96l2.06,0l-1.67,1.21 l0.64,1.95l-1.66-1.21l-1.66,1.21l0.64-1.95l-1.67-1.21l2.06,0L80.41,40.79z M58.1,54.41h-0.33c-0.04,0.41,0,0.34-0.71,0.52 c-1.53,0.37-0.73,1.52-0.73,2.21c0,0.26-0.65,0.55-0.5,1.57c0.11,0.8,0.32,1.3,0.75,1.37h0.24c0.19-0.03,0.42-0.12,0.68-0.28 c0.26-0.15,0.3-0.33,0.4-0.59c0.18-0.42,0.35-1.07,0.5-1.58l0.74-2.24c0.06-0.49-0.27-0.56,0.31-0.44c0-0.41-0.06-0.65-0.15-1.05 c-0.11-0.51-0.26-0.6-0.29-0.91c-0.62,0.16-0.07,0.13-0.55,0.67C58.1,54.03,58.17,53.65,58.1,54.41z"></path> </g> </svg> 